<svg width="1440" height="1186" viewBox="0 0 1440 1186" fill="none" xmlns="http://www.w3.org/2000/svg" preserveAspectRatio="none">
<rect width="1440" height="472" fill="url(#paint0_linear_1_610)"/>
<rect opacity="0.8" y="103" width="1440" height="369" fill="url(#paint1_linear_1_610)"/>
<rect opacity="0.7" y="103" width="1440" height="369" fill="url(#paint2_linear_1_610)"/>
<path d="M0 471H1440V1154.32C806.5 975.33 581 1280.04 0 1154.32V471Z" fill="url(#paint3_linear_1_610)"/>
<path d="M1299.46 591.092C1303.55 591.092 1304.84 588.733 1304.97 587.553L1303.79 586.374L1297.1 584.801L1291.21 588.34L1288.45 593.451C1289.11 596.072 1290.58 600.528 1291.21 597.382C1291.99 593.451 1294.35 591.092 1299.46 591.092Z" fill="url(#paint4_linear_1_610)"/>
<path d="M1316.76 586.374C1317.71 585.116 1319.25 585.325 1319.91 585.588L1322.27 588.34L1322.66 591.878L1318.33 598.955C1314.53 601.445 1307.88 605.639 1311.65 602.493C1316.37 598.562 1315.58 587.946 1316.76 586.374Z" fill="url(#paint5_linear_1_610)"/>
<path d="M1317.15 606.032C1322.5 600.056 1324.62 595.023 1325.02 593.058C1325.31 591.595 1325.8 589.834 1324.23 587.946C1322.66 586.059 1320.17 585.325 1319.12 585.194C1319.77 585.588 1321.09 586.846 1321.09 588.733C1321.09 591.092 1319.51 594.237 1317.15 596.989C1314.79 599.741 1311.65 603.28 1305.75 603.673C1299.85 604.066 1291.99 596.989 1291.6 593.451C1291.21 589.912 1292.38 587.946 1296.71 586.767C1300.17 585.823 1303.66 587.16 1304.97 587.946C1304.97 587.029 1304.73 584.958 1303.79 584.015C1302.61 582.835 1299.07 580.87 1294.35 582.835C1289.63 584.801 1287.27 589.912 1285.31 597.382C1283.34 604.852 1278.23 607.998 1276.26 612.716C1274.3 617.434 1274.69 624.511 1281.38 626.87C1288.06 629.229 1289.24 631.981 1291.6 634.34C1293.96 636.699 1306.15 641.023 1310.47 629.622C1314.79 618.22 1310.47 613.502 1317.15 606.032Z" fill="url(#paint6_linear_1_610)"/>
<path opacity="0.5" d="M1295.68 614.239C1281.52 614.239 1268.15 607.031 1264.62 604.017L1276.41 639.402L1322.02 647.658L1330.27 598.12C1323.72 604.017 1318.51 614.239 1295.68 614.239Z" fill="#2D1C71"/>
<path opacity="0.5" d="M1262.54 597.726C1258.17 599.423 1249.51 606.05 1256.85 613.239C1262.54 618.814 1275.91 619.298 1283.09 618.814" stroke="#D4D2DF" stroke-width="2.5" stroke-linecap="round"/>
<path opacity="0.5" d="M1336.21 606.376C1339.31 606.456 1346 608.063 1346 613.123C1346 618.342 1338.82 620.754 1334.99 621.316" stroke="#D4D2DF" stroke-width="2.5" stroke-linecap="round"/>
<path opacity="0.06" d="M1440 471H0V632.357C426.5 714.751 732 471 1440 632.357V471Z" fill="url(#paint7_linear_1_610)"/>
<path opacity="0.1" d="M0 471H1440V533.139C1013.5 564.869 708 471 0 533.139V471Z" fill="url(#paint8_linear_1_610)"/>
<path opacity="0.1" d="M1091 471H1441V533.139L1419.5 544L1347 518L1254.5 540L1168.5 518L1120.5 533.139L1106.5 505L1091 518V502.069V471Z" fill="url(#paint9_linear_1_610)"/>
<path opacity="0.7" fill-rule="evenodd" clip-rule="evenodd" d="M189.399 825.341L212.208 819.23L214.284 826.977C226.196 828.574 236.562 837.131 239.867 849.466L258.238 918.028C258.881 920.428 257.974 922.878 256.131 924.315C258.446 924.638 260.457 926.307 261.1 928.707L265.328 944.486L265.342 944.542L269.239 959.084C270.097 962.285 268.197 965.575 264.996 966.432L256.516 968.705C253.315 969.562 250.025 967.663 249.167 964.462L246.809 955.66L246.808 955.66L249.167 964.462C250.024 967.663 248.125 970.953 244.924 971.811L236.443 974.083C233.261 974.936 229.991 973.063 229.11 969.896C229.931 973.079 228.035 976.336 224.853 977.189L217.284 979.217C214.084 980.074 210.794 978.175 209.936 974.974L205.708 959.195L205.697 959.154L201.796 944.597C201.153 942.197 202.06 939.747 203.904 938.31C201.588 937.987 199.578 936.318 198.935 933.918L180.564 865.357C177.259 853.022 181.957 840.428 191.475 833.088L189.399 825.341Z" fill="url(#paint10_linear_1_610)"/>
<mask id="mask0_1_610" style="mask-type:alpha" maskUnits="userSpaceOnUse" x="179" y="819" width="91" height="161">
<path opacity="0.7" fill-rule="evenodd" clip-rule="evenodd" d="M189.399 825.341L212.208 819.23L214.283 826.977C226.196 828.574 236.562 837.131 239.867 849.466L258.238 918.028C258.881 920.428 257.974 922.878 256.131 924.315C258.446 924.638 260.456 926.307 261.1 928.707L265.328 944.486L265.342 944.542L269.239 959.084C270.096 962.285 268.197 965.575 264.996 966.432L256.515 968.705C253.315 969.562 250.025 967.663 249.167 964.462L246.808 955.66L246.808 955.66L249.167 964.462C250.024 967.663 248.125 970.953 244.924 971.811L236.443 974.083C233.261 974.936 229.991 973.063 229.11 969.896C229.931 973.079 228.035 976.336 224.853 977.189L217.284 979.217C214.083 980.074 210.793 978.175 209.936 974.974L205.708 959.195L205.697 959.154L201.796 944.597C201.153 942.197 202.06 939.747 203.904 938.31C201.588 937.987 199.578 936.318 198.935 933.918L180.564 865.357C177.258 853.022 181.956 840.428 191.475 833.088L189.399 825.341Z" fill="url(#paint11_linear_1_610)"/>
</mask>
<g mask="url(#mask0_1_610)">
<path d="M209.039 832.949L206.246 822.524C205.779 820.781 206.536 818.942 208.094 818.033L212.454 815.49C213.849 814.676 215.597 814.781 216.884 815.756L227.638 823.896L242.513 837.959C243.062 838.478 243.453 839.142 243.64 839.873L274.586 960.698C274.914 961.979 274.588 963.338 273.715 964.331L271.72 966.602C271.012 967.407 270.011 967.895 268.941 967.955L259.054 968.513L259.941 965.695C260.569 963.7 260.615 961.567 260.073 959.546L252.457 931.121C252.227 930.262 251.717 929.504 251.008 928.967L250.163 928.327C248.763 927.268 248.218 925.42 248.818 923.771L249.361 922.279C249.633 921.529 249.68 920.73 249.485 919.956C244.7 900.886 233.985 859.324 230.589 849.508C227.551 840.727 217.418 837.4 211.727 835.712C210.409 835.321 209.395 834.277 209.039 832.949Z" fill="url(#paint12_linear_1_610)"/>
</g>
<path opacity="0.7" d="M208.324 928.813L190.356 861.755C188.28 854.009 191.465 846.092 197.721 841.798" stroke="url(#paint13_linear_1_610)" stroke-width="5" stroke-linecap="round"/>
<rect width="29.2808" height="14.1681" rx="4" transform="matrix(-0.965926 0.258819 0.258819 0.965926 211.279 804.811)" fill="url(#paint14_linear_1_610)"/>
<path opacity="0.5" d="M217.722 910.548C200.72 910.548 184.663 901.889 180.412 898.269L206.387 988L284.312 973.36L259.281 891.185C251.41 898.269 245.15 910.548 217.722 910.548Z" fill="#372B8C"/>
<path opacity="0.5" d="M147.35 897.324C139.006 900.63 122.48 913.543 136.488 927.549C147.351 938.412 172.853 939.356 186.548 938.412" stroke="#D4D2DF" stroke-width="2.5" stroke-linecap="round"/>
<path opacity="0.3" d="M279.586 871.821C285.568 871.979 298.477 875.127 298.477 885.045C298.477 895.274 284.624 900 277.225 901.102" stroke="#D4D2DF" stroke-width="2.5" stroke-linecap="round"/>
<path opacity="0.1" d="M526 582.892C526 554.624 412.78 545.395 366.258 540.5L0 560.685V727.079C79.6038 727.079 327.203 724.229 327.203 690.896C327.203 665.564 270.343 671.071 280.681 646.841C294.439 614.594 526 611.16 526 582.892Z" fill="url(#paint15_linear_1_610)"/>
<path d="M1440 696.5L1369 690L1440 669V696.5Z" fill="url(#paint16_linear_1_610)"/>
<path d="M1300.31 504L1329 500.5L1332.85 504L1330.42 507L1335 510H1328H1296L1300.31 504Z" fill="white"/>
<path d="M1400 500H1385.53L1383.5 498L1395.03 495L1398.05 494L1400 500Z" fill="white"/>
<path d="M1184.5 503H1200.72L1203 501.667L1190.08 499.667L1186.68 499L1184.5 503Z" fill="white"/>
<path d="M1165 493H1154.92L1157 489L1161.53 489.667L1163.64 489L1165 493Z" fill="white"/>
<path d="M1356.54 516H1370.9L1375 522L1368 527L1355.1 519L1356.54 516Z" fill="white"/>
<path opacity="0.1" d="M374.421 863.5C400 833 634.916 839.167 671 839L1449 846L1439.5 1154.5C1317 1118.5 1250.66 1110.97 1124.5 1097.5C998 1088.5 829.5 1114 785 1119.64C785 1119.64 755.186 1110.03 748.662 1105.5C716.815 1083.38 753.302 1056.5 796.602 1049C839.903 1041.5 855.883 1024.5 832.171 1012C808.459 999.5 594.016 1015 531.642 1013C469.268 1011 472.361 974.5 498.136 963C523.91 951.5 563.288 955.468 568.757 941.5C576 923 522.879 916.5 475.454 914.5C428.029 912.5 346.924 896.287 374.421 863.5Z" fill="url(#paint17_linear_1_610)"/>
<path d="M622 845L639 751L845.5 781.5L1072.5 775.5L1326 724L1443.5 759V911L1330 876L1203 942L1119.5 973L976 959.5L897 934L796 930L675 894L586 892L622 845Z" fill="url(#paint18_linear_1_610)"/>
<path d="M1330 748L1440.5 770.5V669L1369 690L1333 687L1261 693.5L1194.5 679L1164.5 720.5L816.5 735L639 751L705.5 779L717.5 836.5L727 790L777 810.5L792.5 836.5L894.5 829L920 800.5L1046 819.5L1198.5 807.5L1330 748Z" fill="url(#paint19_linear_1_610)"/>
<path d="M854 731.5L762 740C762 740 766.5 756.75 804 773C849 792.5 1043.52 787.302 1179.5 763.5C1245.93 751.872 1316.5 719.5 1316.5 719.5H1135.5L854 731.5Z" fill="url(#paint20_linear_1_610)"/>
<path fill-rule="evenodd" clip-rule="evenodd" d="M1221 932.5L1330 876V812L1291 807.5L1330 748L1399.5 897.5L1440 910V792L1391.5 808L1385 759.154L1330 748L1198.5 807.5L1204.5 852.5L1240.5 870L1221 932.5ZM1146 811.5L1046 819.5L958 872.5L997.5 921.5L976.5 959.5L1119.5 973L1152 961L1146 811.5Z" fill="url(#paint21_linear_1_610)"/>
<path d="M676.5 815L675 894L702 902L676.5 815Z" fill="#D0CCE5"/>
<path d="M796 930L897 934V911.5L884 896.5L894.5 829L792.5 836.5L767 876.5L794.25 883.25L796 930Z" fill="url(#paint22_linear_1_610)"/>
<path d="M1218.5 720L1194.5 679L1165 720H1218.5Z" fill="#BFBCD1"/>
<path d="M1100 877.5L1119.5 973L1066 968L1100 877.5Z" fill="#F6F6F8"/>
<path d="M860.456 691.743C859.256 649.343 831.623 597.41 817.956 576.743L897.456 604.243L921.956 662.243L928.956 723.743L921.956 755.243H858.456C859.623 751.743 861.656 734.143 860.456 691.743Z" fill="url(#paint23_linear_1_610)"/>
<path d="M902.956 466.743C877.756 461.543 842.789 484.91 828.456 497.243L874.456 597.743C879.456 602.243 892.756 618.443 905.956 647.243C919.156 676.043 919.123 716.91 917.456 740.243H1117.46C1117.46 740.243 1125.96 722.243 1128.96 687.243C1130.99 663.571 1132.96 609.743 1092.96 562.243C1052.44 514.13 1013.46 506.743 973.956 497.243C934.456 487.743 934.456 473.243 902.956 466.743Z" fill="url(#paint24_linear_1_610)"/>
<path fill-rule="evenodd" clip-rule="evenodd" d="M867.988 500.97C875.3 498.244 890.329 493.588 891.955 496.775C893.581 499.962 891.337 502.78 890.012 503.791C894.329 501.756 903.668 498.28 906.487 500.657C909.306 503.034 907.694 505.648 906.536 506.657C910.561 507.672 917.335 510.394 924.216 515.219C926.905 510.003 933.029 502.349 940.328 505.759C947.373 509.05 944.308 524.169 941.148 533.677C941.185 533.743 941.221 533.81 941.258 533.876C950.597 551.001 948.688 566.317 946.566 571.834C952.302 580.455 962.892 599.603 959.353 607.232C954.93 616.768 938.496 624.902 910.448 619.129C882.4 613.356 859.788 599.539 844.126 579.666C828.464 559.792 829.656 537.023 841.643 520.184C852.026 505.599 863.496 502.006 867.988 500.97Z" fill="url(#paint25_linear_1_610)"/>
<path fill-rule="evenodd" clip-rule="evenodd" d="M841.456 491.743C848.789 489.076 863.856 484.543 865.456 487.743C867.056 490.943 864.789 493.743 863.456 494.743C867.789 492.743 877.156 489.343 879.956 491.743C882.756 494.143 881.122 496.743 879.956 497.743C883.972 498.791 890.724 501.568 897.566 506.448C900.298 501.254 906.483 493.65 913.754 497.119C920.773 500.467 917.585 515.561 914.348 525.043C914.384 525.109 914.42 525.176 914.456 525.243C923.656 542.443 921.622 557.743 919.456 563.243C925.122 571.91 935.556 591.143 931.956 598.743C927.456 608.243 910.956 616.243 882.956 610.243C854.956 604.243 829.456 592.243 813.956 572.243C798.456 552.243 802.832 527.484 814.956 510.743C825.456 496.243 836.956 492.743 841.456 491.743Z" fill="white"/>
<path d="M884.258 564.277C883.351 565.152 880.55 566.62 876.606 565.486" stroke="black" stroke-width="3" stroke-linecap="round"/>
<path d="M883.456 603.243C883.456 603.243 896.456 604.243 910.456 610.743" stroke="#C6C4D2" stroke-width="3" stroke-linecap="round"/>
<path d="M914.956 594.243C912.456 600.243 918.456 606.076 923.456 607.743C923.456 607.743 931.456 606.743 934.457 599.743C935.605 597.064 932.956 592.743 932.956 592.743C927.789 589.91 918.125 586.64 914.956 594.243Z" fill="#050932"/>
<path d="M819.612 520.434C825.663 516.181 834.805 524.429 836.956 527.779L824.856 543.243C818.94 535.769 813.562 524.687 819.612 520.434Z" fill="#DBDAE4"/>
<path d="M1110.05 641.136C1078.75 607.582 1035.46 590 1001.51 602C967.566 614 967 660 967 660L1085.94 740H1137.13C1141.14 721.026 1141.34 674.69 1110.05 641.136Z" fill="url(#paint26_linear_1_610)"/>
<path d="M951.5 739C947.9 743.4 946 749.5 947 755.5H1001.5C1001.83 754.167 1037.7 758.9 1042.5 752.5C1047.3 746.1 1036.33 733.833 1039.5 736L1063 739L1076.5 733.5L1063 676L1016.5 680.5L1001.5 707.5C995 703.833 979.4 698.4 969 706C958.6 713.6 958.666 726.5 960 733.5C958.666 733.5 955.1 734.6 951.5 739Z" fill="#D5D2E8"/>
<path d="M985.042 682.468L987.5 682C986 684.833 982.5 691.6 980.5 696C978 701.5 973.5 721 977 738.5C980.5 756 998 759.5 1004.5 754.5C1011 749.5 1007.5 747 1007.5 731C1007.5 715 1008.07 704.635 1012 696.5C1019 682 1034.5 677.5 1045 685.5C1054.82 692.984 1058.5 719 1058 734.5C1057.5 750 1064.3 755.075 1073.5 754.5C1081.5 754 1087.01 749 1088.5 742.5C1090.83 732.333 1092.5 699.9 1080.5 675.5C1065.5 645 1045 628 1024.5 620.5C1004 613 988.5 616.5 977 628C968.303 636.697 966.964 649.357 967.406 655.502C967.453 656.153 967.321 656.805 966.991 657.368L962.678 664.726C960.592 668.284 961.552 672.843 964.895 675.258L970.363 679.206C974.599 682.266 979.909 683.446 985.042 682.468Z" fill="white"/>
<path d="M970.79 667.427C971.209 669.008 969.473 672.943 966.804 673.65C964.134 674.356 961.542 671.567 961.123 669.986C960.705 668.405 962.529 666.551 965.199 665.844C967.868 665.137 970.372 665.846 970.79 667.427Z" fill="#050932"/>
<path d="M1010 649.266C1013.58 648.723 1020.82 648.777 1021.15 651.71C1021.34 653.386 1020 654.654 1018.5 655.484C1017.99 655.761 1018.06 657.193 1018.61 657.349C1022.76 658.514 1028.74 660.835 1028.99 663.522C1029.26 666.428 1024.03 667.032 1020.42 667.373C1019.89 667.423 1019.82 668.113 1020.32 668.3C1022.38 669.076 1024.98 670.335 1025.27 672.076C1025.69 674.519 1024.04 677.371 1011.65 679" stroke="#D4D2DF" stroke-width="1.5" stroke-linecap="round"/>
<path d="M1066 753.5L1068 739.5C1064.5 741.667 1057.96 743.922 1059.5 747C1061 750 1063.5 752.5 1066 753.5Z" fill="#E3E2EA"/>
<path d="M985.839 647.009C985.219 648.107 982.953 650.312 978.85 650.35" stroke="black" stroke-width="3" stroke-linecap="round"/>
<path d="M1018 623L1020.5 619C1020.5 619 1022.5 619.5 1026 621L1018 623Z" fill="#D6D4E0"/>
<path d="M1023 678.5L987.5 682C987.5 682 984 686 980.5 695C979.401 697.825 978.5 702.5 978.5 702.5C978.5 702.5 986.579 693.316 993 689C999.421 684.684 1023 678.5 1023 678.5Z" fill="url(#paint27_linear_1_610)"/>
<path d="M1014.5 718.5C1009.3 717.3 1007.67 709.667 1007.5 706L1008.5 692L1025 678L1052.5 681.5C1059.83 697.667 1071.5 729.6 1059.5 728C1047.5 726.4 1039.17 719 1036.5 715.5C1037 716.833 1036.8 719.9 1032 721.5C1027.2 723.1 1022 715.5 1020 711.5C1020.33 714.333 1019.7 719.7 1014.5 718.5Z" fill="white"/>
<path d="M1016.54 611.002C1010.5 608.5 1004.93 616.581 1003 619.641L1019.12 624.5C1020.84 620.18 1022.28 613.376 1016.54 611.002Z" fill="white"/>
<path d="M1067.97 738.125C1069.55 747.099 1056.91 756.124 1044.68 758.284C1032.44 760.443 1025.23 754.919 1023.65 745.945C1022.07 736.971 1026.7 727.946 1038.94 725.786C1051.18 723.627 1066.38 729.151 1067.97 738.125Z" fill="white"/>
<path d="M1013.5 616C1011 615 1007.52 618.363 1006.94 619.705L1014.89 623.068C1015.5 620 1015.96 616.985 1013.5 616Z" fill="#B6B3D2"/>
<path d="M822.117 726.335C823.788 711.21 834.879 702.143 840.216 699.5L878.5 755H826.294C824.206 751.747 820.447 741.46 822.117 726.335Z" fill="#D5D2E8"/>
<path d="M928.5 735.5C924.5 726.3 919.167 706.333 918.5 697.5L875.5 693L877.5 755H938C936.5 752.333 932.5 744.7 928.5 735.5Z" fill="#D5D2E8"/>
<path d="M896 629.5C893.6 629.5 890 633.5 889.5 638.5C885.5 637.333 878 634.868 868.001 637.5C856.501 640.527 835.001 655 838.501 695.5C841.301 727.9 856.334 748.667 863.501 755H899.001C897.667 752.167 894 743.6 890 732C886 720.4 885.333 704.833 885.5 698.5C895 698.333 916 698.1 924 698.5C934 699 938.5 691.5 941.5 686.5C944.5 681.5 934.5 675 930 669.5C925.5 664 927 659 921 649.5C916.2 641.9 906.333 639 902 638.5C902 634 898.4 629.5 896 629.5Z" fill="white"/>
<path d="M885.5 699C880.5 699.333 871 699.7 869 696.5C867.304 693.787 871.001 691.121 873.993 689.662C874.437 689.445 874.381 688.727 873.906 688.59C870.646 687.652 865.854 685.708 864.5 683" stroke="#D4D2DF" stroke-width="1.5" stroke-linecap="round"/>
<path d="M942 682C942.419 683.581 941.352 688.505 939.484 689C937.615 689.494 935.419 688.081 935.001 686.5C934.582 684.919 935.854 682.57 937.749 681.228C939.483 680 941.582 680.419 942 682Z" fill="#050932"/>
<path d="M912.839 676.009C912.219 677.107 909.953 679.312 905.85 679.35" stroke="black" stroke-width="3" stroke-linecap="round"/>
<path d="M874.727 651.794C878.659 648.959 884.602 654.457 886 656.691L878.135 667C874.29 662.017 870.794 654.629 874.727 651.794Z" fill="#DBDAE4"/>
<g opacity="0.7">
<path d="M541.716 452.242L528.5 471.5H601L594.958 454.508L586.651 458.284L562.862 434.117L541.716 452.242Z" fill="white"/>
<path d="M552.667 447.711L541.716 452.242L528.5 471.5H545.115L552.667 447.711Z" fill="url(#paint28_linear_1_610)"/>
<path d="M566.261 460.927L562.862 434.117L586.651 458.284L580.987 466.591L570.037 456.773L566.261 460.927Z" fill="url(#paint29_linear_1_610)"/>
</g>
<path d="M1111.13 417.45L1091.15 470.575L1440.5 471V394.5L1428.6 374.525H1412.03L1395.45 347.75L1355.93 364.325L1313.43 337.125L1275.6 335L1258.18 352.85L1234.38 347.325L1222.9 357.95L1203.78 354.975L1190.18 374.95L1147.68 385.575L1111.13 417.45Z" fill="white"/>
<path d="M1163.83 426.8L1147.68 385.575L1111.13 417.45L1090.92 471H1202.08L1176.58 412.35L1163.83 426.8Z" fill="url(#paint30_linear_1_610)"/>
<path d="M1354.65 400.025L1313.43 337.125L1355.93 364.325L1395.45 347.75L1412.03 374.525H1428.6L1440.08 393.65V471H1428.18L1414.58 445.925L1423.5 436.15L1399.28 398.325L1391.2 420L1368.25 388.975L1354.65 400.025Z" fill="url(#paint31_linear_1_610)"/>
<path d="M1244.15 411.5L1258.18 352.85L1275.6 335L1265.4 369.425L1278.15 379.2L1282.4 397.475H1298.55L1324.48 471H1291.33L1285.8 454.85L1265.4 439.125L1259.45 417.45L1244.15 411.5Z" fill="url(#paint32_linear_1_610)"/>
<path d="M53.5 325.5L-1.5 354.5V583.5L39 615L127.5 624.5L239 575L357.5 563L394.5 585.5L455.5 563L428.5 461L389 435.5L373.5 452L282.5 311L256.5 329L182.5 316.5L94.5 372L70.5 333L53.5 325.5Z" fill="white"/>
<path d="M39 615L-0.5 584.5V502L24 556.75L48.5 529L43.75 572L39 615Z" fill="url(#paint33_linear_1_610)"/>
<path d="M338 486.5L373.5 452L329 383L338 486.5Z" fill="url(#paint34_linear_1_610)"/>
<path d="M357.5 563L394.5 585.5L377.5 513L357.5 563Z" fill="url(#paint35_linear_1_610)"/>
<path d="M50.5 400L94.5 372L70.5 333L53.5 325.5L22 353.5L29 380.5L0 402V487L36 433L50.5 427.5V400Z" fill="url(#paint36_linear_1_610)"/>
<path d="M256 481.5L256.5 329L182.5 316.5L171 369.5L161.5 380L168.75 393.5L152 412L155 470.5L127.5 491V624.5L239 575L226 409.5L256 481.5Z" fill="url(#paint37_linear_1_610)"/>
<g opacity="0.6">
<circle opacity="0.2" cx="1271.81" cy="172.854" r="2" fill="white"/>
<circle opacity="0.2" cx="955.001" cy="85.9998" r="2.45" fill="white"/>
<circle opacity="0.2" cx="266.54" cy="248.534" r="2.45" fill="white"/>
<circle opacity="0.5" cx="911.879" cy="158.38" r="2.225" fill="white"/>
<circle cx="543.881" cy="390.429" r="2.225" fill="white"/>
<circle cx="441.776" cy="82.7729" r="1.225" fill="white"/>
<circle cx="353.341" cy="352.89" r="1.225" fill="white"/>
<circle cx="1156.12" cy="385.177" r="1.725" fill="white"/>
<circle cx="1396.59" cy="228.309" r="2.225" fill="white"/>
<circle cx="1296.53" cy="126.52" r="1.225" fill="white"/>
<circle cx="786.501" cy="193.5" r="2.5" fill="white"/>
<ellipse opacity="0.2" rx="3.84387" ry="3.79864" transform="matrix(-1 0 0 1 109.098 198.174)" fill="white"/>
<ellipse opacity="0.34" rx="1.4659" ry="1.45453" transform="matrix(-1 0 0 1 503.811 288.871)" fill="white"/>
<ellipse opacity="0.34" rx="2.4659" ry="1.95453" transform="matrix(-1 0 0 1 1180.96 47.1789)" fill="white"/>
<ellipse opacity="0.2" rx="2.41474" ry="2.38633" transform="matrix(-1 0 0 1 719.449 56.1788)" fill="white"/>
<ellipse opacity="0.2" rx="2.41474" ry="2.38633" transform="matrix(-1 0 0 1 947.195 379.762)" fill="white"/>
<ellipse opacity="0.2" rx="2.41474" ry="2.38633" transform="matrix(-1 0 0 1 1251.2 113.415)" fill="white"/>
<ellipse opacity="0.2" rx="2.41474" ry="2.38633" transform="matrix(-1 0 0 1 1404.4 157.22)" fill="white"/>
<ellipse opacity="0.2" rx="4.82948" ry="4.77265" transform="matrix(-1 0 0 1 374.226 325.769)" fill="white"/>
<ellipse rx="2.20737" ry="2.19316" transform="matrix(-1 0 0 1 475.279 55.1097)" fill="white"/>
<ellipse rx="1.20737" ry="1.19316" transform="matrix(-1 0 0 1 720.277 319.608)" fill="white"/>
<ellipse rx="1.20737" ry="1.19316" transform="matrix(-1 0 0 1 1215.82 359.41)" fill="white"/>
<ellipse opacity="0.2" rx="2.20737" ry="2.19316" transform="matrix(-1 0 0 1 866.189 176.318)" fill="white"/>
<ellipse opacity="0.5" rx="3.19298" ry="3.16717" transform="matrix(-1 0 0 1 1344.24 293.765)" fill="white"/>
<ellipse rx="1.20737" ry="1.19316" transform="matrix(-1 0 0 1 1376.92 52.754)" fill="white"/>
<ellipse rx="2.20737" ry="2.19316" transform="matrix(-1 0 0 1 318.142 234.773)" fill="white"/>
<ellipse rx="1.20737" ry="1.19316" transform="matrix(-1 0 0 1 16.8959 63.7925)" fill="white"/>
<ellipse opacity="0.2" cx="1225.37" cy="286.927" rx="3.29351" ry="3.20768" fill="white"/>
<ellipse opacity="0.2" cx="1141.21" cy="106.229" rx="2.41474" ry="2.38633" fill="white"/>
<ellipse opacity="0.2" cx="1059.8" cy="257.778" rx="3.84388" ry="3.79864" fill="white"/>
<ellipse opacity="0.2" cx="460.037" cy="376.219" rx="3.35107" ry="3.79864" fill="white"/>
<ellipse opacity="0.5" cx="73.9437" cy="46.8782" rx="3.20737" ry="3.19316" fill="white"/>
<ellipse cx="1436.97" cy="103.917" rx="1.20737" ry="1.19316" fill="white"/>
<ellipse opacity="0.5" cx="1340.97" cy="63.9168" rx="1.20737" ry="1.19316" fill="white"/>
<ellipse opacity="0.34" rx="1.9659" ry="1.95453" transform="matrix(1 0 0 -1 402.407 406.642)" fill="white"/>
<ellipse opacity="0.2" rx="2.41474" ry="2.38633" transform="matrix(1 0 0 -1 854.414 387.642)" fill="white"/>
<ellipse opacity="0.2" rx="2.41474" ry="2.38633" transform="matrix(1 0 0 -1 586.669 64.0585)" fill="white"/>
<ellipse opacity="0.2" rx="4.82948" ry="4.77265" transform="matrix(1 0 0 -1 1179.64 48.0513)" fill="white"/>
<ellipse rx="1.20737" ry="1.19316" transform="matrix(1 0 0 -1 1047.59 349.711)" fill="white"/>
<ellipse rx="1.20737" ry="1.19316" transform="matrix(1 0 0 -1 773.588 104.212)" fill="white"/>
<ellipse rx="1.20737" ry="1.19316" transform="matrix(1 0 0 -1 355.043 72.4106)" fill="white"/>
<ellipse rx="2.68578" ry="2.65418" transform="matrix(1 0 0 -1 675.851 245.741)" fill="white"/>
<ellipse rx="2.68578" ry="2.65418" transform="matrix(1 0 0 -1 895.851 335.741)" fill="white"/>
<ellipse rx="3.68578" ry="3.65418" transform="matrix(1 0 0 -1 1006.85 404.741)" fill="white"/>
<ellipse rx="2.19298" ry="2.16717" transform="matrix(1 0 0 -1 249.05 121.055)" fill="white"/>
<ellipse opacity="0.5" rx="4.89926" ry="4.81808" transform="matrix(1 0 0 -1 562.151 354.745)" fill="white"/>
<ellipse opacity="0.2" cx="193.495" cy="83.8934" rx="6.29351" ry="6.20768" transform="rotate(-180 193.495 83.8934)" fill="white"/>
<ellipse opacity="0.34" cx="564.309" cy="15.326" rx="0.965897" ry="0.954531" transform="rotate(-180 564.309 15.326)" fill="white"/>
<ellipse opacity="0.2" cx="819.448" cy="277.517" rx="2.41474" ry="2.38633" transform="rotate(-180 819.448 277.517)" fill="white"/>
<ellipse opacity="0.2" cx="1186.2" cy="169.281" rx="3.41474" ry="3.38633" transform="rotate(-180 1186.2 169.281)" fill="white"/>
<ellipse opacity="0.2" cx="1404.4" cy="156.477" rx="2.41474" ry="2.38633" transform="rotate(-180 1404.4 156.477)" fill="white"/>
<ellipse opacity="0.2" cx="394.06" cy="146.043" rx="3.84388" ry="3.79864" transform="rotate(-180 394.06 146.043)" fill="white"/>
<ellipse opacity="0.2" cx="572.825" cy="37.602" rx="3.35107" ry="3.79864" transform="rotate(-180 572.825 37.602)" fill="white"/>
<ellipse opacity="0.2" cx="583.38" cy="145.457" rx="2.36546" ry="2.82463" transform="rotate(-180 583.38 145.457)" fill="white"/>
<ellipse cx="406.278" cy="215.587" rx="1.20737" ry="1.19316" transform="rotate(-180 406.278 215.587)" fill="white"/>
<ellipse cx="1334.24" cy="10.931" rx="2.19298" ry="2.16717" transform="rotate(-180 1334.24 10.931)" fill="white"/>
<ellipse cx="327.14" cy="64.9235" rx="2.20737" ry="2.19316" transform="rotate(-180 327.14 64.9235)" fill="white"/>
<ellipse cx="37.7584" cy="170.974" rx="1.70737" ry="1.69316" transform="rotate(-180 37.7584 170.974)" fill="white"/>
<ellipse cx="66.8949" cy="259.904" rx="1.20737" ry="1.19316" transform="rotate(-180 66.8949 259.904)" fill="white"/>
</g>
<g opacity="0.3" filter="url(#filter0_f_1_610)">
<ellipse cx="183.977" cy="208.963" rx="12.6858" ry="12.6542" transform="rotate(-180 183.977 208.963)" fill="white"/>
</g>
<ellipse cx="183.977" cy="210.963" rx="2.68578" ry="2.65418" transform="rotate(-180 183.977 210.963)" fill="white"/>
<g opacity="0.3" filter="url(#filter1_f_1_610)">
<circle cx="1069.83" cy="127.091" r="8" transform="rotate(-180 1069.83 127.091)" fill="white"/>
</g>
<g filter="url(#filter2_d_1_610)">
<circle cx="1069.83" cy="127.091" r="2" transform="rotate(-180 1069.83 127.091)" fill="white"/>
</g>
<path d="M1284.63 157.984L1169.87 257.016" stroke="url(#paint38_linear_1_610)" stroke-linecap="round"/>
<path opacity="0.5" d="M659.755 599.406C661.853 599.46 666.381 600.553 666.381 603.996C666.381 607.547 661.522 609.188 658.927 609.571" stroke="#D4D2DF" stroke-width="2.5" stroke-linecap="round"/>
<path opacity="0.7" fill-rule="evenodd" clip-rule="evenodd" d="M637.541 588.076C636.772 590.947 635.175 593.528 632.949 595.497L627.516 600.306C626.646 600.636 625.941 601.366 625.682 602.335L620.342 622.266C619.913 623.866 620.862 625.511 622.463 625.94L640.506 630.774C642.106 631.203 643.751 630.253 644.18 628.653L649.52 608.722C649.78 607.755 649.535 606.771 648.948 606.049L646.646 599.167C645.704 596.349 645.611 593.315 646.381 590.445L647.731 585.405L638.891 583.036L637.541 588.076Z" fill="url(#paint39_linear_1_610)"/>
<mask id="mask1_1_610" style="mask-type:alpha" maskUnits="userSpaceOnUse" x="620" y="583" width="30" height="48">
<path opacity="0.7" fill-rule="evenodd" clip-rule="evenodd" d="M637.541 588.076C636.772 590.947 635.175 593.527 632.95 595.497L627.516 600.306C626.646 600.637 625.942 601.367 625.683 602.334L620.343 622.265C619.914 623.866 620.864 625.511 622.464 625.94L640.507 630.774C642.107 631.203 643.752 630.253 644.181 628.653L649.521 608.722C649.781 607.754 649.536 606.769 648.948 606.048L646.647 599.167C645.704 596.349 645.612 593.315 646.381 590.445L647.731 585.405L638.892 583.036L637.541 588.076Z" fill="url(#paint40_linear_1_610)"/>
</mask>
<g mask="url(#mask1_1_610)">
<path d="M641.799 593.242L644.256 584.072L649.82 585.563L647.364 594.727L651.519 606.715L644.678 632.243L639.442 630.84L644.968 610.215C645.254 609.149 645.24 608.024 644.927 606.965L641.839 596.492C641.527 595.433 641.513 594.309 641.799 593.242Z" fill="url(#paint41_linear_1_610)"/>
</g>
<rect x="639.039" y="577.763" width="11.5952" height="5.809" rx="1" transform="rotate(15 639.039 577.763)" fill="url(#paint42_linear_1_610)"/>
<path opacity="0.5" d="M637.913 614.856C646.562 614.856 654.731 610.372 656.893 608.496L643.679 654.974L604.036 647.391L616.77 604.827C620.774 608.496 623.959 614.856 637.913 614.856Z" fill="#392D90"/>
<path opacity="0.5" d="M610.087 604.827C607.336 605.91 601.887 610.141 606.506 614.73C610.088 618.289 618.496 618.598 623.011 618.289" stroke="#D4D2DF" stroke-width="2.5" stroke-linecap="round"/>
<path opacity="0.5" d="M1349.72 990.175C1352.82 990.255 1359.5 991.868 1359.5 996.949C1359.5 1002.19 1352.33 1004.61 1348.5 1005.17" stroke="#D4D2DF" stroke-width="2.5" stroke-linecap="round"/>
<path opacity="0.7" fill-rule="evenodd" clip-rule="evenodd" d="M1319.45 1024.61C1320.02 1022.48 1320.95 1020.47 1322.2 1018.65L1332.65 1003.42C1333.53 1002.61 1334.19 1001.56 1334.52 1000.33L1344.21 964.172C1345.14 960.721 1343.09 957.173 1339.64 956.248L1319.43 950.835C1315.98 949.91 1312.43 951.958 1311.51 955.409L1301.82 991.563C1301.49 992.793 1301.54 994.035 1301.9 995.167L1303.34 1013.6C1303.51 1015.79 1303.3 1018 1302.73 1020.13L1298.81 1034.77L1315.53 1039.25L1319.45 1024.61Z" fill="url(#paint43_linear_1_610)"/>
<mask id="mask2_1_610" style="mask-type:alpha" maskUnits="userSpaceOnUse" x="1298" y="950" width="47" height="90">
<path opacity="0.7" fill-rule="evenodd" clip-rule="evenodd" d="M1319.45 1024.61C1320.02 1022.48 1320.95 1020.47 1322.2 1018.65L1332.65 1003.42C1333.53 1002.61 1334.19 1001.56 1334.52 1000.33L1344.21 964.172C1345.14 960.721 1343.09 957.173 1339.64 956.248L1319.43 950.835C1315.98 949.91 1312.43 951.958 1311.51 955.409L1301.82 991.563C1301.49 992.793 1301.54 994.035 1301.9 995.167L1303.34 1013.6C1303.51 1015.79 1303.3 1018 1302.73 1020.13L1298.81 1034.77L1315.53 1039.25L1319.45 1024.61Z" fill="url(#paint44_linear_1_610)"/>
</mask>
<g mask="url(#mask2_1_610)">
<path d="M1310.58 1017.88L1305.38 1037.29L1294.86 1034.47L1299.5 1017.14L1299.07 996.459L1312.01 948.183L1321.91 950.836L1310.91 991.911C1310.73 992.583 1310.64 993.276 1310.65 993.972L1310.85 1015.82C1310.85 1016.51 1310.76 1017.2 1310.58 1017.88Z" fill="url(#paint45_linear_1_610)"/>
</g>
<rect x="1315.25" y="1049.22" width="21.9279" height="10.9855" rx="2.77256" transform="rotate(-165 1315.25 1049.22)" fill="#207BA8"/>
<path opacity="0.5" d="M1304.56 1011.88C1288.2 1011.88 1272.75 1003.4 1268.67 999.852L1293.66 1087.75L1368.63 1073.41L1344.54 992.913C1336.97 999.852 1330.95 1011.88 1304.56 1011.88Z" fill="#301F6E"/>
<path opacity="0.5" d="M1270.39 995.977C1266.33 997.575 1258.29 1003.82 1265.1 1010.59C1270.39 1015.84 1282.79 1016.3 1289.46 1015.84" stroke="#D4D2DF" stroke-width="2.5" stroke-linecap="round"/>
<path opacity="0.5" d="M1251.19 1024.5C1261.57 1034.74 1285.92 1035.63 1299 1034.74" stroke="#D4D2DF" stroke-width="2.5" stroke-linecap="round"/>
<path d="M211.434 645.052C211.782 644.404 212.459 644 213.195 644H246.015C246.636 644 247.222 644.288 247.6 644.781L254.524 653.781C255.535 655.096 254.598 657 252.938 657H208.348C206.835 657 205.87 655.384 206.587 654.052L211.434 645.052Z" fill="white"/>
<path d="M295.853 664.371C296.125 663.553 296.89 663 297.752 663H316.58C317.353 663 318.057 663.446 318.388 664.144L322.648 673.144C323.276 674.471 322.308 676 320.84 676H289.981C287.9 676 287.202 673.218 289.037 672.236L293.45 669.877C293.902 669.635 294.244 669.229 294.405 668.742L295.853 664.371Z" fill="white"/>
<path d="M102.5 683H131.87L136 680L112.596 675.5L106.454 674L102.5 683Z" fill="white"/>
<path d="M188 692H177.918L180 688L184.534 688.667L186.643 688L188 692Z" fill="white"/>
<path d="M673.565 947.45C673.276 946.196 674.228 945 675.514 945H707.015C707.636 945 708.222 945.288 708.6 945.781L715.524 954.781C716.535 956.096 715.598 958 713.938 958H677.591C676.66 958 675.852 957.357 675.642 956.45L673.565 947.45Z" fill="white"/>
<path d="M770.081 983.685C770.217 983.276 770.599 983 771.03 983H831.214C831.6 983 831.952 983.223 832.117 983.572L837.631 995.219C837.843 995.668 837.695 996.204 837.282 996.479L818.894 1008.74C818.645 1008.9 818.334 1008.95 818.047 1008.86L776.192 996.059C776.065 996.02 775.948 995.957 775.846 995.872L768.681 989.936C768.363 989.673 768.24 989.242 768.369 988.851L770.081 983.685Z" fill="white"/>
<path d="M524.624 922.279L527.607 910.803C527.838 909.915 527.436 908.985 526.631 908.545L512.131 900.618C511.442 900.242 510.597 900.303 509.97 900.774L498.825 909.147C498.696 909.244 498.578 909.357 498.476 909.482L496.344 912.099C495.456 913.188 495.94 914.83 497.277 915.264L517.904 921.966L521.925 923.625C523.047 924.087 524.318 923.453 524.624 922.279Z" fill="white"/>
<path d="M914.032 1024H941.545C941.756 1024 941.962 1024.07 942.133 1024.19L945.077 1026.33C945.566 1026.68 945.63 1027.39 945.214 1027.83L936.88 1036.6C936.643 1036.85 936.296 1036.96 935.959 1036.89L916.964 1033.1C916.644 1033.04 916.375 1032.82 916.244 1032.52L913.116 1025.4C912.826 1024.74 913.31 1024 914.032 1024Z" fill="white"/>
<path d="M882.5 983H898.719L901 980.923L895.754 974L884.683 976.769L882.5 983Z" fill="white"/>
<path d="M552.5 864H564.336L566 865.385L562.172 870L554.093 868.154L552.5 864Z" fill="white"/>
<path d="M666.29 988H645.102C644.246 988 643.786 989.006 644.345 989.653L647.763 993.612C647.973 993.856 648.288 993.983 648.608 993.955L659.239 993.012C659.331 993.004 659.424 993.009 659.515 993.026L663.917 993.865C664.339 993.946 664.765 993.748 664.976 993.373L667.161 989.49C667.536 988.824 667.055 988 666.29 988Z" fill="white"/>
<defs>
<filter id="filter0_f_1_610" x="154.292" y="179.308" width="59.3716" height="59.3083" filterUnits="userSpaceOnUse" color-interpolation-filters="sRGB">
<feFlood flood-opacity="0" result="BackgroundImageFix"/>
<feBlend mode="normal" in="SourceGraphic" in2="BackgroundImageFix" result="shape"/>
<feGaussianBlur stdDeviation="8.5" result="effect1_foregroundBlur_1_610"/>
</filter>
<filter id="filter1_f_1_610" x="1049.83" y="107.091" width="40" height="40" filterUnits="userSpaceOnUse" color-interpolation-filters="sRGB">
<feFlood flood-opacity="0" result="BackgroundImageFix"/>
<feBlend mode="normal" in="SourceGraphic" in2="BackgroundImageFix" result="shape"/>
<feGaussianBlur stdDeviation="6" result="effect1_foregroundBlur_1_610"/>
</filter>
<filter id="filter2_d_1_610" x="1063.83" y="125.091" width="12" height="12" filterUnits="userSpaceOnUse" color-interpolation-filters="sRGB">
<feFlood flood-opacity="0" result="BackgroundImageFix"/>
<feColorMatrix in="SourceAlpha" type="matrix" values="0 0 0 0 0 0 0 0 0 0 0 0 0 0 0 0 0 0 127 0" result="hardAlpha"/>
<feOffset dy="4"/>
<feGaussianBlur stdDeviation="2"/>
<feComposite in2="hardAlpha" operator="out"/>
<feColorMatrix type="matrix" values="0 0 0 0 0 0 0 0 0 0 0 0 0 0 0 0 0 0 0.25 0"/>
<feBlend mode="normal" in2="BackgroundImageFix" result="effect1_dropShadow_1_610"/>
<feBlend mode="normal" in="SourceGraphic" in2="effect1_dropShadow_1_610" result="shape"/>
</filter>
<linearGradient id="paint0_linear_1_610" x1="663.5" y1="774.5" x2="423.963" y2="27.0849" gradientUnits="userSpaceOnUse">
<stop stop-color="#5434A3"/>
<stop offset="1" stop-color="#141242"/>
</linearGradient>
<linearGradient id="paint1_linear_1_610" x1="748" y1="509" x2="713.86" y2="139.121" gradientUnits="userSpaceOnUse">
<stop stop-color="#4194E1"/>
<stop offset="1" stop-color="#1E1B57" stop-opacity="0"/>
</linearGradient>
<linearGradient id="paint2_linear_1_610" x1="496.5" y1="1002" x2="622.361" y2="123.428" gradientUnits="userSpaceOnUse">
<stop stop-color="#C141E1"/>
<stop offset="1" stop-color="#1E1B57" stop-opacity="0"/>
</linearGradient>
<linearGradient id="paint3_linear_1_610" x1="-223" y1="-336.641" x2="583.649" y2="1139.05" gradientUnits="userSpaceOnUse">
<stop stop-color="#636BFF"/>
<stop offset="1" stop-color="#2A1869"/>
</linearGradient>
<linearGradient id="paint4_linear_1_610" x1="1301.18" y1="574.923" x2="1283.47" y2="603.176" gradientUnits="userSpaceOnUse">
<stop stop-color="#A3DB6A"/>
<stop offset="1" stop-color="#3C3298" stop-opacity="0"/>
</linearGradient>
<linearGradient id="paint5_linear_1_610" x1="1314.55" y1="571.385" x2="1291.67" y2="598.764" gradientUnits="userSpaceOnUse">
<stop stop-color="#A3DB6A"/>
<stop offset="1" stop-color="#3C3298" stop-opacity="0"/>
</linearGradient>
<linearGradient id="paint6_linear_1_610" x1="1296.07" y1="600.479" x2="1255.99" y2="655.356" gradientUnits="userSpaceOnUse">
<stop stop-color="#A3DB6A"/>
<stop offset="1" stop-color="#3C3298" stop-opacity="0"/>
</linearGradient>
<linearGradient id="paint7_linear_1_610" x1="681.917" y1="430.89" x2="657.478" y2="751.047" gradientUnits="userSpaceOnUse">
<stop stop-color="white"/>
<stop offset="1" stop-color="#3C3298" stop-opacity="0"/>
</linearGradient>
<linearGradient id="paint8_linear_1_610" x1="641" y1="525" x2="673.701" y2="675.529" gradientUnits="userSpaceOnUse">
<stop stop-color="white"/>
<stop offset="1" stop-color="#3C3298" stop-opacity="0"/>
</linearGradient>
<linearGradient id="paint9_linear_1_610" x1="1246.8" y1="525" x2="1325.12" y2="612.629" gradientUnits="userSpaceOnUse">
<stop stop-color="white"/>
<stop offset="1" stop-color="#3C3298" stop-opacity="0"/>
</linearGradient>
<linearGradient id="paint10_linear_1_610" x1="200.804" y1="822.286" x2="235.302" y2="1000.3" gradientUnits="userSpaceOnUse">
<stop stop-color="#F8FAFB"/>
<stop offset="1" stop-color="#F8FAFB" stop-opacity="0"/>
</linearGradient>
<linearGradient id="paint11_linear_1_610" x1="200.803" y1="822.286" x2="235.302" y2="1000.3" gradientUnits="userSpaceOnUse">
<stop stop-color="#F8FAFB"/>
<stop offset="1" stop-color="#F8FAFB" stop-opacity="0"/>
</linearGradient>
<linearGradient id="paint12_linear_1_610" x1="220.084" y1="745.725" x2="294.703" y2="942.662" gradientUnits="userSpaceOnUse">
<stop stop-color="white"/>
<stop offset="1" stop-color="white" stop-opacity="0"/>
</linearGradient>
<linearGradient id="paint13_linear_1_610" x1="194.484" y1="841.581" x2="217.22" y2="926.43" gradientUnits="userSpaceOnUse">
<stop stop-color="white"/>
<stop offset="1" stop-color="#5F55A0" stop-opacity="0"/>
</linearGradient>
<linearGradient id="paint14_linear_1_610" x1="59.306" y1="14.0906" x2="41.5095" y2="-31.2204" gradientUnits="userSpaceOnUse">
<stop stop-color="#0F3EEC"/>
<stop offset="1" stop-color="#71FFED"/>
</linearGradient>
<linearGradient id="paint15_linear_1_610" x1="294.71" y1="596.88" x2="341.678" y2="775.021" gradientUnits="userSpaceOnUse">
<stop stop-color="white"/>
<stop offset="1" stop-color="#3C3298" stop-opacity="0"/>
</linearGradient>
<linearGradient id="paint16_linear_1_610" x1="1385.15" y1="684.495" x2="1387.64" y2="657.068" gradientUnits="userSpaceOnUse">
<stop stop-color="#CCCAD6"/>
<stop offset="1" stop-color="#CCCAD6" stop-opacity="0"/>
</linearGradient>
<linearGradient id="paint17_linear_1_610" x1="937.5" y1="760.5" x2="1058.23" y2="1366.7" gradientUnits="userSpaceOnUse">
<stop stop-color="white"/>
<stop offset="1" stop-color="#3C3298" stop-opacity="0"/>
</linearGradient>
<linearGradient id="paint18_linear_1_610" x1="1468" y1="849" x2="1252.28" y2="363.781" gradientUnits="userSpaceOnUse">
<stop stop-color="white"/>
<stop offset="1" stop-color="#D0CCE5"/>
</linearGradient>
<linearGradient id="paint19_linear_1_610" x1="255.5" y1="1253.5" x2="680.917" y2="1574.39" gradientUnits="userSpaceOnUse">
<stop stop-color="white"/>
<stop offset="1" stop-color="white"/>
</linearGradient>
<linearGradient id="paint20_linear_1_610" x1="762" y1="825" x2="843.333" y2="589.35" gradientUnits="userSpaceOnUse">
<stop stop-color="white" stop-opacity="0"/>
<stop offset="1" stop-color="#D4D2DF"/>
</linearGradient>
<linearGradient id="paint21_linear_1_610" x1="1364.39" y1="902.5" x2="1164.83" y2="1219.95" gradientUnits="userSpaceOnUse">
<stop stop-color="#D0CCE6"/>
<stop offset="1" stop-color="#CCCAD6" stop-opacity="0"/>
</linearGradient>
<linearGradient id="paint22_linear_1_610" x1="806.5" y1="865" x2="876.5" y2="919" gradientUnits="userSpaceOnUse">
<stop stop-color="#D8D4E7"/>
<stop offset="1" stop-color="#CDC9E0"/>
</linearGradient>
<linearGradient id="paint23_linear_1_610" x1="781.956" y1="625.243" x2="893.207" y2="393.072" gradientUnits="userSpaceOnUse">
<stop stop-color="#D0CCE6"/>
<stop offset="1" stop-color="#CCCAD6" stop-opacity="0"/>
</linearGradient>
<linearGradient id="paint24_linear_1_610" x1="1235.46" y1="808.243" x2="683.956" y2="213.243" gradientUnits="userSpaceOnUse">
<stop stop-color="white"/>
<stop offset="1" stop-color="#D4D2DF"/>
</linearGradient>
<linearGradient id="paint25_linear_1_610" x1="861.578" y1="566.736" x2="888.364" y2="446.565" gradientUnits="userSpaceOnUse">
<stop stop-color="#D0CCE6"/>
<stop offset="1" stop-color="#E5E4EC"/>
</linearGradient>
<linearGradient id="paint26_linear_1_610" x1="1035.85" y1="676.703" x2="1139.12" y2="677.085" gradientUnits="userSpaceOnUse">
<stop stop-color="#D0CCE6"/>
<stop offset="1" stop-color="#DED9F3" stop-opacity="0"/>
</linearGradient>
<linearGradient id="paint27_linear_1_610" x1="1023" y1="671.5" x2="958.945" y2="696.465" gradientUnits="userSpaceOnUse">
<stop stop-color="white"/>
<stop offset="1" stop-color="#B0AACF"/>
</linearGradient>
<linearGradient id="paint28_linear_1_610" x1="534.6" y1="463.093" x2="537.766" y2="444.261" gradientUnits="userSpaceOnUse">
<stop stop-color="#CCCAD6"/>
<stop offset="1" stop-color="#CCCAD6" stop-opacity="0"/>
</linearGradient>
<linearGradient id="paint29_linear_1_610" x1="568.275" y1="452.415" x2="577.742" y2="422.785" gradientUnits="userSpaceOnUse">
<stop stop-color="#CCCAD6"/>
<stop offset="1" stop-color="#CCCAD6" stop-opacity="0"/>
</linearGradient>
<linearGradient id="paint30_linear_1_610" x1="1116.21" y1="433.709" x2="1131.17" y2="350.5" gradientUnits="userSpaceOnUse">
<stop stop-color="#D0CCE6"/>
<stop offset="1" stop-color="#CCCAD6" stop-opacity="0"/>
</linearGradient>
<linearGradient id="paint31_linear_1_610" x1="1342.24" y1="412.559" x2="1373.63" y2="285.703" gradientUnits="userSpaceOnUse">
<stop stop-color="#D0CCE6"/>
<stop offset="1" stop-color="#CCCAD6" stop-opacity="0"/>
</linearGradient>
<linearGradient id="paint32_linear_1_610" x1="1262.43" y1="411.632" x2="1309.26" y2="293.435" gradientUnits="userSpaceOnUse">
<stop stop-color="#D0CCE6"/>
<stop offset="1" stop-color="#CCCAD6" stop-opacity="0"/>
</linearGradient>
<linearGradient id="paint33_linear_1_610" x1="13.6058" y1="582.915" x2="32.6475" y2="514.289" gradientUnits="userSpaceOnUse">
<stop stop-color="#CCCAD6"/>
<stop offset="1" stop-color="#CCCAD6" stop-opacity="0"/>
</linearGradient>
<linearGradient id="paint34_linear_1_610" x1="339.124" y1="441.319" x2="382.829" y2="361.034" gradientUnits="userSpaceOnUse">
<stop stop-color="#D0CCE6"/>
<stop offset="1" stop-color="#CCCAD6" stop-opacity="0"/>
</linearGradient>
<linearGradient id="paint35_linear_1_610" x1="365.918" y1="553.851" x2="393.543" y2="493.617" gradientUnits="userSpaceOnUse">
<stop stop-color="#D0CCE6"/>
<stop offset="1" stop-color="#CCCAD6" stop-opacity="0"/>
</linearGradient>
<linearGradient id="paint36_linear_1_610" x1="21.5" y1="416.5" x2="77.5" y2="276.5" gradientUnits="userSpaceOnUse">
<stop stop-color="#D0CCE6"/>
<stop offset="1" stop-color="#CCCAD6" stop-opacity="0"/>
</linearGradient>
<linearGradient id="paint37_linear_1_610" x1="156.849" y1="490.048" x2="288.74" y2="254.036" gradientUnits="userSpaceOnUse">
<stop stop-color="#D0CCE6"/>
<stop offset="1" stop-color="#CCCAD6" stop-opacity="0"/>
</linearGradient>
<linearGradient id="paint38_linear_1_610" x1="1163.71" y1="251.697" x2="1276.3" y2="151.408" gradientUnits="userSpaceOnUse">
<stop stop-color="white"/>
<stop offset="1" stop-color="white" stop-opacity="0"/>
</linearGradient>
<linearGradient id="paint39_linear_1_610" x1="643.311" y1="584.221" x2="632.193" y2="636.272" gradientUnits="userSpaceOnUse">
<stop stop-color="#F8FAFB"/>
<stop offset="1" stop-color="#F8FAFB" stop-opacity="0"/>
</linearGradient>
<linearGradient id="paint40_linear_1_610" x1="643.311" y1="584.22" x2="632.193" y2="636.272" gradientUnits="userSpaceOnUse">
<stop stop-color="#F8FAFB"/>
<stop offset="1" stop-color="#F8FAFB" stop-opacity="0"/>
</linearGradient>
<linearGradient id="paint41_linear_1_610" x1="648.398" y1="566.096" x2="628.78" y2="622.961" gradientUnits="userSpaceOnUse">
<stop stop-color="white"/>
<stop offset="1" stop-color="white" stop-opacity="0"/>
</linearGradient>
<linearGradient id="paint42_linear_1_610" x1="647.592" y1="573.129" x2="642.356" y2="583.239" gradientUnits="userSpaceOnUse">
<stop stop-color="#FF6E89"/>
<stop offset="1" stop-color="#FFB16B"/>
</linearGradient>
<linearGradient id="paint43_linear_1_610" x1="1307.17" y1="1037.01" x2="1378.49" y2="900.588" gradientUnits="userSpaceOnUse">
<stop stop-color="#F8FAFB"/>
<stop offset="1" stop-color="#F8FAFB" stop-opacity="0"/>
</linearGradient>
<linearGradient id="paint44_linear_1_610" x1="1307.17" y1="1037.01" x2="1326.26" y2="938.302" gradientUnits="userSpaceOnUse">
<stop stop-color="#F8FAFB"/>
<stop offset="1" stop-color="#F8FAFB" stop-opacity="0"/>
</linearGradient>
<linearGradient id="paint45_linear_1_610" x1="1297.55" y1="1071.28" x2="1334.65" y2="963.746" gradientUnits="userSpaceOnUse">
<stop stop-color="white"/>
<stop offset="1" stop-color="white" stop-opacity="0"/>
</linearGradient>
</defs>
</svg>
