<svg width="258" height="377" viewBox="0 0 258 377" fill="none" xmlns="http://www.w3.org/2000/svg">
<path d="M37.126 103.787C37.6198 109.836 42.3655 125.402 57.3979 139.284C76.1883 156.636 100.191 174.183 129.316 213.61C158.44 253.037 159.046 299.408 150.005 319.769C142.773 336.058 132.131 344.51 127.714 346.7" stroke="#5BCAF1" stroke-width="4" stroke-linecap="round"/>
<path d="M109.547 65.997C112.237 71.0774 116.92 85.9099 114.133 104.597C110.65 127.956 132.477 180.835 179.351 214.896C226.226 248.957 243.739 271.572 242.445 297.757" stroke="#5BCAF1" stroke-width="4" stroke-linecap="round"/>
<path d="M65.098 80.1745C68.4767 86.0906 75.4136 105.633 76.1324 136.475C77.0308 175.027 102.098 213.447 117.718 234.956C133.339 256.464 148.12 269.121 159.91 306.415C171.7 343.71 156.954 362.598 146.187 368.945" stroke="#5BCAF1" stroke-width="4" stroke-linecap="round"/>
<path d="M61.1976 106.262C60.5468 101.522 55.6468 99.4702 53.2781 99.0367L67.0391 77.5922L77.9054 73.4086L124.106 149.563C132.176 166.394 148.184 201.428 147.655 206.916C146.994 213.776 143.456 221.744 131.137 220.248C121.282 219.052 116.865 209.23 115.888 204.469C112.38 205.207 104.701 204.959 102.043 198.056C99.3855 191.153 100.325 183.428 101.127 180.428C99.1114 180.592 94.5033 179.235 92.1997 172.489C89.3201 164.057 94.1875 161.449 93.2989 151.516C92.4104 141.583 87.984 139.618 81.2215 136.35C75.8115 133.736 75.6041 126.525 76.1767 123.247C74.4967 123.649 70.2563 123.692 66.7346 120.644C62.3324 116.834 62.011 112.188 61.1976 106.262Z" fill="url(#paint0_linear_1_11)"/>
<path d="M138.527 116.489C131.976 111.672 122.652 114.65 118.809 116.741C109.706 123.916 95.9907 142.113 113.954 157.508C136.409 176.752 142.983 204.312 146.823 217.145C149.895 227.411 159.088 230.893 163.301 231.35C165.498 233.562 171.275 240.243 176.806 249.27C183.718 260.553 177.402 267.021 170.962 273.17C165.81 278.089 167.163 284.908 168.484 287.702C167.624 288.645 165.687 291.494 164.823 295.35C163.959 299.205 167.826 305.692 169.868 308.453C170.909 309.887 172.113 315.808 168.596 328.024C164.2 343.294 150.063 344.701 146.647 348.218C143.23 351.735 144.534 354.169 146.501 354.512C148.469 354.856 158.499 351.361 165.308 346.171C172.116 340.981 178.284 331.267 178.943 314.867C179.601 298.467 181.469 296.647 189.848 283.146C196.552 272.345 191.189 250.092 187.67 240.316C189.291 236.267 192.209 225.799 190.907 216.318C189.606 206.838 180.117 201.635 175.535 200.219C174.543 199.867 172.185 197.619 170.688 191.443C168.817 183.724 157.332 176.769 151.676 171.608C146.019 166.447 141.369 157.228 146.504 148.646C150.613 141.78 147.41 136.065 145.295 134.066C145.769 130.214 145.079 121.305 138.527 116.489Z" fill="url(#paint1_linear_1_11)"/>
<path d="M83.7922 104.903C73.6777 92.3569 70.2211 73.8709 71.998 69.2725L96.8858 71.2385C97.722 72.1397 101.092 75.4906 103.06 80.604C105.246 86.2808 103.777 92.3153 102.303 94.8401C106.04 94.3798 114.661 95.2931 119.246 102.628C123.832 109.963 121.046 117.47 119.08 120.306C119.687 120.929 121.245 123.069 122.623 126.649C124.001 130.228 121.2 135.025 119.627 136.976C122.643 136.549 129.545 137.194 133.029 143.192C137.383 150.689 136.476 156.91 142.379 162.711C148.281 168.511 151.551 166.519 161.434 164.548C169.341 162.972 175.467 169.543 177.541 173.025C182.066 173.974 190.855 178.248 189.815 187.749C188.776 197.249 180.797 203.086 176.938 204.816C177.037 206.98 177.703 213.476 179.574 222.149C181.446 230.823 190.211 240.561 194.359 244.346C198.162 245.328 206.841 248.935 211.131 255.503C215.421 262.071 212.775 269.304 210.915 272.099C212.383 273.369 215.328 277.079 215.369 281.76C215.42 287.612 209.693 292.753 205.195 296.319C200.697 299.886 193.348 307.486 194.407 314.05C195.467 320.614 193.478 326.885 188.756 323.198C184.034 319.512 184.62 308.644 187.298 303.21C189.976 297.775 193.344 297.946 196.487 286.094C199.63 274.242 199.308 264.825 192.738 251.575C186.169 238.325 166.474 236.734 165.118 223.679C163.761 210.624 172.12 208.506 166.976 193.239C161.832 177.973 142.653 175.816 139.162 175.325C135.67 174.835 133.58 174.171 131.169 168.861C128.757 163.552 123.225 163.48 114.152 161.836C105.079 160.191 99.4957 154.268 98.2859 139.688C97.0761 125.108 96.4353 120.585 83.7922 104.903Z" fill="url(#paint2_linear_1_11)"/>
<path d="M103.869 72.22C86.6976 74.1339 80.4371 73.4338 69.524 82.1404C58.8562 90.6511 56.8586 101.475 43.7414 108.58C28.9993 116.566 18.0038 104.564 16.5427 92.2639C14.9999 79.2764 19.9268 45.5217 52.7132 31.8989C85.4995 18.2762 116.419 33.2138 122.939 45.3821C129.459 57.5504 125.332 69.8277 103.869 72.22Z" fill="url(#paint3_linear_1_11)"/>
<ellipse cx="50.5003" cy="35.4999" rx="9.5" ry="2.5" transform="rotate(-25.0376 50.5003 35.4999)" fill="#5C27B2"/>
<path d="M35.498 64.2732C29.098 66.2733 27.1647 78.1064 26.998 83.773C28.7617 78.9396 31.9135 68.2487 35.498 69.2729C38.998 70.2729 40.2344 82.273 39.998 86.773C41.1647 78.4397 41.8981 62.2732 35.498 64.2732Z" fill="#5C27B2"/>
<path d="M86.3431 39.4258C92.0152 35.8498 102.278 42.0495 106.7 45.5964C101.877 43.8056 91.6939 39.2741 90.1497 42.6673C88.6419 45.9804 96.9768 54.7016 100.556 57.4391C93.4551 52.9247 80.671 43.0019 86.3431 39.4258Z" fill="#5C27B2"/>
<path d="M58.8999 48.3204C65.6048 48.2408 71.1064 58.8941 73.0191 64.2307C69.8458 60.1808 63.5392 50.9909 60.4478 53.0744C57.4293 55.1088 59.9687 66.9021 61.5865 71.1079C57.8973 63.5452 52.1951 48.3999 58.8999 48.3204Z" fill="#5C27B2"/>
<defs>
<linearGradient id="paint0_linear_1_11" x1="117" y1="171.5" x2="160.184" y2="76.3969" gradientUnits="userSpaceOnUse">
<stop stop-color="#FFAB6D"/>
<stop offset="1" stop-color="#7528B3"/>
</linearGradient>
<linearGradient id="paint1_linear_1_11" x1="153.5" y1="54.5001" x2="26.5287" y2="217.905" gradientUnits="userSpaceOnUse">
<stop stop-color="#D75DF5"/>
<stop offset="1" stop-color="#5C27B2"/>
</linearGradient>
<linearGradient id="paint2_linear_1_11" x1="216.5" y1="214" x2="185.13" y2="117.804" gradientUnits="userSpaceOnUse">
<stop offset="0.0162919" stop-color="#FFAB6D"/>
<stop offset="1" stop-color="#7740D1"/>
</linearGradient>
<linearGradient id="paint3_linear_1_11" x1="122.999" y1="86.7738" x2="104.452" y2="28.4655" gradientUnits="userSpaceOnUse">
<stop stop-color="#F55DDD"/>
<stop offset="1" stop-color="#7740D1"/>
</linearGradient>
</defs>
</svg>
