<svg width="32" height="33" viewBox="0 0 32 33" fill="none" xmlns="http://www.w3.org/2000/svg">
<path fill-rule="evenodd" clip-rule="evenodd" d="M6.19355 32.9405H0V20.2734C0 16.7648 1.63917 13.4578 4.43128 11.3332L13.0894 4.74493C12.9719 4.55923 12.9043 4.34152 12.9043 4.10874C12.9043 3.42826 13.482 2.87662 14.1946 2.87662C14.5427 2.87662 14.8585 3.00821 15.0906 3.22212L15.9026 2.60426C16.2931 2.30713 16.7914 2.18998 17.2734 2.28203L18.5809 2.53172C18.9172 2.59596 19.2651 2.55883 19.5803 2.42505L22.916 1.00937C23.3671 0.817948 23.8869 1.03942 24.0612 1.49732L24.5039 2.65965C24.6761 3.11202 24.6508 3.6159 24.434 4.04871L20.0367 12.8283C19.605 13.6903 20.2318 14.7051 21.1957 14.7051H23.3583C28.131 14.7051 32 18.5741 32 23.3467V32.9405H25.8065V28.012H21.6774V25.5478H19.0968V32.9405H12.3871V28.012L8.77419 25.5478V22.5907H6.19355V32.9405ZM9.19991 19.1409C8.1106 19.1409 7.22754 20.0239 7.22754 21.1132H14.4994C15.0441 21.1132 15.4856 20.6717 15.4856 20.1271C15.4856 19.5824 15.0441 19.1409 14.4994 19.1409H9.19991ZM20.1279 24.0703C20.1279 22.981 21.011 22.098 22.1003 22.098H26.8837C27.4283 22.098 27.8699 22.5395 27.8699 23.0841C27.8699 23.6288 27.4283 24.0703 26.8837 24.0703H20.1279Z" fill="white"/>
</svg>
