<svg id="Layer_1" data-name="Layer 1" xmlns="http://www.w3.org/2000/svg" xmlns:xlink="http://www.w3.org/1999/xlink" viewBox="0 0 1440 1174.83" preserveAspectRatio="none"><defs><style>.cls-1{fill:url(#linear-gradient);}.cls-2,.cls-25{fill-rule:evenodd;}.cls-2{fill:url(#linear-gradient-2);}.cls-3{fill:url(#linear-gradient-3);}.cls-4{fill:url(#linear-gradient-4);}.cls-5{fill:url(#linear-gradient-5);}.cls-6{fill:url(#linear-gradient-6);}.cls-7{fill:url(#linear-gradient-7);}.cls-10,.cls-11,.cls-8{opacity:0.1;}.cls-10,.cls-11,.cls-12,.cls-25,.cls-27,.cls-28,.cls-38,.cls-39,.cls-42,.cls-44,.cls-54,.cls-60,.cls-67,.cls-70,.cls-71,.cls-79,.cls-8,.cls-82,.cls-9{isolation:isolate;}.cls-8{fill:url(#linear-gradient-8);}.cls-12,.cls-79,.cls-9{opacity:0.2;}.cls-9{fill:url(#linear-gradient-9);}.cls-10{fill:url(#linear-gradient-10);}.cls-11{fill:url(#linear-gradient-11);}.cls-12{fill:url(#linear-gradient-12);}.cls-13{opacity:0.15;}.cls-14{fill:#e9eaf8;}.cls-15{fill:url(#linear-gradient-13);}.cls-16{fill:url(#linear-gradient-14);}.cls-17{fill:url(#linear-gradient-15);}.cls-18{mask:url(#mask);}.cls-19{fill:#597ced;}.cls-20{fill:url(#linear-gradient-17);}.cls-21{fill:url(#linear-gradient-18);}.cls-22{fill:url(#linear-gradient-19);}.cls-23{fill:url(#linear-gradient-20);}.cls-24{fill:url(#linear-gradient-21);}.cls-25,.cls-54{opacity:0.7;}.cls-25{fill:url(#linear-gradient-22);}.cls-26{mask:url(#mask-2);}.cls-27,.cls-28,.cls-38,.cls-39,.cls-44,.cls-67,.cls-70,.cls-71,.cls-82{opacity:0.5;}.cls-27{fill:url(#linear-gradient-23);}.cls-28{fill:url(#linear-gradient-24);}.cls-29{fill:url(#linear-gradient-25);}.cls-30{mask:url(#mask-3);}.cls-31{fill:url(#linear-gradient-27);}.cls-32{fill:url(#linear-gradient-28);}.cls-33{fill:url(#linear-gradient-29);}.cls-34{fill:url(#linear-gradient-30);}.cls-35{fill:url(#linear-gradient-31);}.cls-36,.cls-37,.cls-70,.cls-76,.cls-80{fill:none;stroke-linecap:round;}.cls-36,.cls-76{stroke:#19378c;}.cls-36,.cls-37{stroke-width:4px;}.cls-37{stroke:#4b6ed6;}.cls-38{fill:url(#linear-gradient-32);}.cls-39{fill:url(#linear-gradient-33);}.cls-40{fill:url(#linear-gradient-34);}.cls-41{mask:url(#mask-4);}.cls-42{opacity:0.55;fill:url(#linear-gradient-35);}.cls-43{fill:url(#linear-gradient-36);}.cls-44{fill:url(#linear-gradient-37);}.cls-45{fill:#a94256;}.cls-46{fill:url(#linear-gradient-38);}.cls-47{fill:url(#linear-gradient-39);}.cls-48{fill:#d9d9d9;}.cls-49{fill:#2a186a;}.cls-50{fill:#1561c8;}.cls-51{fill:url(#linear-gradient-40);}.cls-52{fill:url(#linear-gradient-41);}.cls-53{mask:url(#mask-5);}.cls-54{fill:url(#linear-gradient-42);}.cls-55{fill:#49b1ec;}.cls-56{fill:#2171dd;}.cls-57{fill:#105cc2;}.cls-58{fill:#3180ec;}.cls-59,.cls-60{fill:#5b82f0;}.cls-60{opacity:0.3;}.cls-61{fill:url(#linear-gradient-43);}.cls-62{fill:#569089;}.cls-63{fill:url(#linear-gradient-44);}.cls-64{fill:#4c817a;}.cls-65{fill:url(#linear-gradient-45);}.cls-66{fill:#4a817a;}.cls-67{fill:url(#linear-gradient-46);}.cls-68{fill:url(#linear-gradient-47);}.cls-69{mask:url(#mask-6);}.cls-70{stroke-width:5px;stroke:url(#linear-gradient-48);}.cls-71,.cls-72{fill:#5f29b1;}.cls-73{fill:url(#linear-gradient-49);}.cls-74{fill:#4062c5;}.cls-75{fill:url(#linear-gradient-50);}.cls-76,.cls-80{stroke-width:2px;}.cls-77{fill:#5448d5;}.cls-78{mask:url(#mask-7);}.cls-79,.cls-82{fill:#29339d;}.cls-80{stroke:#599ce6;}.cls-81{fill:url(#linear-gradient-52);}</style><linearGradient id="linear-gradient" x1="1049.34" y1="3.1" x2="1043.41" y2="-47.9" gradientTransform="matrix(1, 0, 0, -1, 0, 883.65)" gradientUnits="userSpaceOnUse"><stop offset="0" stop-color="#6587ff"/><stop offset="1" stop-color="#092f71"/></linearGradient><linearGradient id="linear-gradient-2" x1="1234.63" y1="683.66" x2="1181.21" y2="608.22" gradientTransform="matrix(1, 0, 0, -1, 0, 883.65)" gradientUnits="userSpaceOnUse"><stop offset="0" stop-color="#3487be"/><stop offset="1" stop-color="#1e499e"/></linearGradient><linearGradient id="linear-gradient-3" x1="245.54" y1="749.94" x2="211.9" y2="633.31" gradientTransform="matrix(1, 0, 0, -1, 0, 883.65)" gradientUnits="userSpaceOnUse"><stop offset="0" stop-color="#40bce3"/><stop offset="1" stop-color="#1e499e"/></linearGradient><linearGradient id="linear-gradient-4" x1="606.11" y1="-151.41" x2="846.55" y2="329.37" gradientTransform="matrix(1, 0, 0, -1, 0, 883.65)" gradientUnits="userSpaceOnUse"><stop offset="0" stop-color="#ffac6c"/><stop offset="1" stop-color="#fb807e"/></linearGradient><linearGradient id="linear-gradient-5" x1="639.54" y1="-131.83" x2="434.17" y2="190.16" gradientTransform="matrix(1, 0, 0, -1, 0, 883.65)" gradientUnits="userSpaceOnUse"><stop offset="0" stop-color="#0f3eec"/><stop offset="1" stop-color="#71ffed"/></linearGradient><linearGradient id="linear-gradient-6" x1="1174.05" y1="291.51" x2="1192.23" y2="157.69" gradientTransform="matrix(1, 0, 0, -1, 0, 883.65)" gradientUnits="userSpaceOnUse"><stop offset="0" stop-color="#d75df5"/><stop offset="1" stop-color="#6e40d1"/></linearGradient><linearGradient id="linear-gradient-7" x1="1236.45" y1="480.22" x2="1252.97" y2="353.5" gradientTransform="matrix(1, 0, 0, -1, 0, 883.65)" gradientUnits="userSpaceOnUse"><stop offset="0" stop-color="#5efdfd"/><stop offset="1" stop-color="#5442d2"/></linearGradient><linearGradient id="linear-gradient-8" x1="1046.52" y1="1227.32" x2="1046.52" y2="546.97" gradientTransform="matrix(0, 1, 1, 0, 240.39, -855.19)" gradientUnits="userSpaceOnUse"><stop offset="0" stop-color="#a091ff"/><stop offset="1" stop-color="#d9d9d9" stop-opacity="0"/></linearGradient><linearGradient id="linear-gradient-9" x1="1426.52" y1="1227.32" x2="1426.52" y2="546.97" gradientTransform="matrix(0, 1, 1, 0, 620.39, -1235.19)" xlink:href="#linear-gradient-8"/><linearGradient id="linear-gradient-10" x1="476.52" y1="1317.32" x2="476.52" y2="636.97" gradientTransform="matrix(0, 1, 1, 0, -422.29, -365.19)" xlink:href="#linear-gradient-8"/><linearGradient id="linear-gradient-11" x1="926.52" y1="1299.58" x2="926.52" y2="327.84" gradientTransform="matrix(0, 1, 1, 0, 180.57, -645.6)" xlink:href="#linear-gradient-8"/><linearGradient id="linear-gradient-12" x1="331.52" y1="1509.58" x2="331.52" y2="537.84" gradientTransform="matrix(0, 1, 1, 0, -621.08, -273.1)" xlink:href="#linear-gradient-8"/><linearGradient id="linear-gradient-13" x1="1321.34" y1="63.32" x2="1286.1" y2="-278.37" xlink:href="#linear-gradient"/><linearGradient id="linear-gradient-14" x1="1369.39" y1="91.81" x2="1394.44" y2="-5.03" xlink:href="#linear-gradient"/><linearGradient id="linear-gradient-15" x1="1552.59" y1="679.48" x2="1309.03" y2="-246.68" gradientTransform="matrix(1, 0, 0, -1, 0, 883.65)" gradientUnits="userSpaceOnUse"><stop offset="0" stop-color="#5c6fb4"/><stop offset="1" stop-color="#012964"/></linearGradient><mask id="mask" x="1028.88" y="880.53" width="39.12" height="48.21" maskUnits="userSpaceOnUse"><g id="mask0_1_448" data-name="mask0 1 448"><path class="cls-1" d="M1034.32,912l-5.4-25.63a2,2,0,0,1,1.59-2.37l18.2-3.39a2,2,0,0,1,2,.85L1066,904a2,2,0,0,1,.26,1.72l-6,19.19a2,2,0,0,1-2.91,1.13l-22.06-12.79A2,2,0,0,1,1034.32,912Z"/></g></mask><linearGradient id="linear-gradient-17" x1="144.16" y1="602.4" x2="30.41" y2="63.9" xlink:href="#linear-gradient"/><linearGradient id="linear-gradient-18" x1="112.63" y1="572.37" x2="151.81" y2="470.92" xlink:href="#linear-gradient"/><linearGradient id="linear-gradient-19" x1="374.41" y1="615.17" x2="175.01" y2="350.19" gradientTransform="matrix(1, 0, 0, -1, 0, 883.65)" gradientUnits="userSpaceOnUse"><stop offset="0" stop-color="#5c6fb4"/><stop offset="1" stop-color="#143678"/></linearGradient><linearGradient id="linear-gradient-20" x1="615.27" y1="1067.88" x2="0.77" y2="140.38" xlink:href="#linear-gradient-15"/><linearGradient id="linear-gradient-21" x1="33.05" y1="648.94" x2="117.04" y2="462.04" xlink:href="#linear-gradient"/><linearGradient id="linear-gradient-22" x1="1229.54" y1="663.06" x2="1167.5" y2="616" gradientTransform="matrix(1, 0, 0, -1, 0, 883.65)" gradientUnits="userSpaceOnUse"><stop offset="0" stop-color="#f8fafb"/><stop offset="1" stop-color="#f8fafb" stop-opacity="0"/></linearGradient><mask id="mask-2" x="1163.32" y="199.77" width="90.7" height="85.98" maskUnits="userSpaceOnUse"><g id="mask1_1_448" data-name="mask1 1 448"><path class="cls-2" d="M1244.17,241.41l-29.27-41.64L1171,235.49h0c-4.67,3.28-2.93,13.81,3.89,23.51s16.13,14.91,20.81,11.63h0Z"/></g></mask><linearGradient id="linear-gradient-23" x1="1246.7" y1="646.94" x2="1186.19" y2="604.41" gradientTransform="matrix(1, 0, 0, -1, 0, 883.65)" gradientUnits="userSpaceOnUse"><stop offset="0" stop-color="#d9d9d9"/><stop offset="1" stop-color="#d9d9d9" stop-opacity="0"/></linearGradient><linearGradient id="linear-gradient-24" x1="1223.61" y1="679.8" x2="1163.09" y2="637.26" xlink:href="#linear-gradient-23"/><linearGradient id="linear-gradient-25" x1="969.24" y1="786.49" x2="969.24" y2="765.81" gradientTransform="matrix(0, 1, 1, 0, 453.39, -748.65)" gradientUnits="userSpaceOnUse"><stop offset="0" stop-color="#381e94"/><stop offset="1" stop-color="#271660"/></linearGradient><mask id="mask-3" x="172.96" y="155.83" width="104.54" height="91.5" maskUnits="userSpaceOnUse"><g id="mask2_1_448" data-name="mask2 1 448"><path class="cls-3" d="M261.61,202.22c0-11.86,9.81-22.44,10.39-25.34L264.84,169a82.28,82.28,0,0,1-10.75,17.13c-6.47,7.49-11.82,7.85-18,6.28s-13.64-5.7-14.23-10.92,10-16.42,14.33-18.91l-6.45-6.78c-7,2.9-14.47,21.1-24,27.33-14.27,9.28-19.09,14.16-19.65,24.41-.46,8.66,3.86,15.62,13.8,19.1s11.69,7.54,15.2,11,21.64,9.86,28.07-7S261.61,224.21,261.61,202.22Z"/></g></mask><linearGradient id="linear-gradient-27" x1="214.2" y1="713.44" x2="254.4" y2="628.55" xlink:href="#linear-gradient-3"/><linearGradient id="linear-gradient-28" x1="1059.57" y1="472.4" x2="373.59" y2="-180.17" gradientTransform="matrix(1, 0, 0, -1, 0, 883.65)" gradientUnits="userSpaceOnUse"><stop offset="0" stop-color="#304ea8"/><stop offset="1" stop-color="#0d2771"/></linearGradient><linearGradient id="linear-gradient-29" x1="554.17" y1="133.73" x2="417.17" y2="-343.77" gradientTransform="matrix(1, 0, 0, -1, 0, 883.65)" gradientUnits="userSpaceOnUse"><stop offset="0" stop-color="#4d70d9"/><stop offset="1" stop-color="#143080"/></linearGradient><linearGradient id="linear-gradient-30" x1="570.24" y1="131.84" x2="559.71" y2="-57.99" gradientTransform="matrix(1, 0, 0, -1, 0, 883.65)" gradientUnits="userSpaceOnUse"><stop offset="0" stop-color="#304ea8"/><stop offset="1" stop-color="#143389"/></linearGradient><linearGradient id="linear-gradient-31" x1="406.37" y1="44.35" x2="438.71" y2="-208.03" gradientTransform="matrix(1, 0, 0, -1, 0, 883.65)" gradientUnits="userSpaceOnUse"><stop offset="0" stop-color="#304ea8"/><stop offset="1" stop-color="#123086"/></linearGradient><linearGradient id="linear-gradient-32" x1="714.1" y1="130.89" x2="764.72" y2="190" xlink:href="#linear-gradient-4"/><linearGradient id="linear-gradient-33" x1="673.9" y1="167.63" x2="699.88" y2="226.06" xlink:href="#linear-gradient-4"/><linearGradient id="linear-gradient-34" x1="797.64" y1="275.29" x2="748.4" y2="103.84" gradientTransform="matrix(1, 0, 0, -1, 0, 883.65)" gradientUnits="userSpaceOnUse"><stop offset="0" stop-color="#ff6e89"/><stop offset="1" stop-color="#ffb16b"/></linearGradient><mask id="mask-4" x="606.75" y="597.49" width="319.48" height="243.53" maskUnits="userSpaceOnUse"><g id="mask3_1_448" data-name="mask3 1 448"><path class="cls-4" d="M663.5,836.33c-8-5.6-15.67-30.67-16.5-42.5-5.5,3.83-13.8,12.2-19,15-6.5,3.5-23.5,13-15-9,6.8-17.6,32.17-40.67,44-50,10-20,37-67.4,65-97,35-37,88-42,107.5-46s91.5-17,96-3-12,45.5-46,65.5-64,21-98.5,24-68,25.5-88.5,46.5-20,51-20,63S673.5,843.33,663.5,836.33Z"/></g></mask><linearGradient id="linear-gradient-35" x1="780.67" y1="211.26" x2="746.67" y2="127.76" gradientTransform="matrix(1, 0, 0, -1, 0, 883.65)" gradientUnits="userSpaceOnUse"><stop offset="0" stop-color="#a94256"/><stop offset="1" stop-color="#ff8380"/></linearGradient><linearGradient id="linear-gradient-36" x1="672.68" y1="118" x2="602.56" y2="4.78" xlink:href="#linear-gradient-34"/><linearGradient id="linear-gradient-37" x1="758.4" y1="217.86" x2="770.71" y2="283.81" xlink:href="#linear-gradient-4"/><linearGradient id="linear-gradient-38" x1="833.15" y1="250.7" x2="845.48" y2="195.7" gradientTransform="matrix(1, 0, 0, -1, 0, 883.65)" gradientUnits="userSpaceOnUse"><stop offset="0" stop-color="#a94256"/><stop offset="1" stop-color="#d06068"/></linearGradient><linearGradient id="linear-gradient-39" x1="782.07" y1="118.2" x2="834.57" y2="207.7" xlink:href="#linear-gradient-4"/><linearGradient id="linear-gradient-40" x1="497.36" y1="88.13" x2="508.84" y2="35.63" gradientTransform="matrix(1, 0, 0, -1, 0, 883.65)" gradientUnits="userSpaceOnUse"><stop offset="0" stop-color="#1d68cf"/><stop offset="1" stop-color="#3180ec"/></linearGradient><linearGradient id="linear-gradient-41" x1="581.7" y1="-81.23" x2="441.72" y2="227.6" xlink:href="#linear-gradient-5"/><mask id="mask-5" x="413.36" y="714.99" width="188.64" height="231.42" maskUnits="userSpaceOnUse"><g id="mask4_1_448" data-name="mask4 1 448"><path class="cls-5" d="M561,912.83c-3.41,5.3-9.47,10.71-12.51,13.12a1,1,0,0,1-1,.1L457,880.83c23.17,2.17,72.7,5.2,85.5,0,16-6.5,25-43.5,0-63.5s-70-20-103-30-40-53.5,10-67.5,87,5,109,24,39.5,56,36,93.5c-2.77,29.66-19.78,52.32-28.21,60.23a1,1,0,0,0-.32.67A35.34,35.34,0,0,1,561,912.83Z"/></g></mask><linearGradient id="linear-gradient-42" x1="500.56" y1="94.91" x2="600.19" y2="16.72" gradientTransform="matrix(1, 0, 0, -1, 0, 883.65)" gradientUnits="userSpaceOnUse"><stop offset="0" stop-color="#6aecff"/><stop offset="1" stop-color="#378eec"/></linearGradient><linearGradient id="linear-gradient-43" x1="152.62" y1="13.06" x2="164.46" y2="-83.48" gradientTransform="matrix(1, 0, 0, -1, 0, 883.65)" gradientUnits="userSpaceOnUse"><stop offset="0" stop-color="#5e6efd"/><stop offset="1" stop-color="#8847db"/></linearGradient><linearGradient id="linear-gradient-44" x1="1006.92" y1="-247.01" x2="1030.92" y2="-288.01" gradientTransform="matrix(1, 0, 0, -1, 0, 883.65)" gradientUnits="userSpaceOnUse"><stop offset="0" stop-color="#569089"/><stop offset="1" stop-color="#569089" stop-opacity="0"/></linearGradient><linearGradient id="linear-gradient-45" x1="914.39" y1="-196.07" x2="1007.16" y2="-309.14" gradientTransform="matrix(1, 0, 0, -1, 0, 883.65)" gradientUnits="userSpaceOnUse"><stop offset="0" stop-color="#a3db6a"/><stop offset="1" stop-color="#326d98"/></linearGradient><linearGradient id="linear-gradient-46" x1="1205.45" y1="269.85" x2="1226.75" y2="154.49" xlink:href="#linear-gradient-6"/><linearGradient id="linear-gradient-47" x1="1127.91" y1="286.13" x2="1235.17" y2="191.81" gradientTransform="matrix(1, 0, 0, -1, 0, 883.65)" gradientUnits="userSpaceOnUse"><stop offset="0" stop-color="#d75df5"/><stop offset="1" stop-color="#7740d1"/></linearGradient><mask id="mask-6" x="1074.23" y="586.33" width="225.64" height="133.15" maskUnits="userSpaceOnUse"><g id="mask5_1_448" data-name="mask5 1 448"><path class="cls-6" d="M1191.5,664.33c34.8-12.4,58.17-39.5,65.5-51.5l30-26.5c-.83,15.66-9.4,51-37,79-34.5,35-86,51.5-106.5,53.5s-62,.5-68.5-20.5c-4.86-15.71,14.48-19.5,26.5-19.5C1118.5,678.83,1156.7,676.73,1191.5,664.33Z"/></g></mask><linearGradient id="linear-gradient-48" x1="1150.72" y1="195.81" x2="1227.72" y2="223.31" gradientTransform="matrix(1, 0, 0, -1, 0, 883.65)" gradientUnits="userSpaceOnUse"><stop offset="0" stop-color="#fff" stop-opacity="0.34"/><stop offset="1" stop-color="#fff" stop-opacity="0"/></linearGradient><linearGradient id="linear-gradient-49" x1="1449.92" y1="636.81" x2="1151.81" y2="281.99" xlink:href="#linear-gradient-28"/><linearGradient id="linear-gradient-50" x1="1180.22" y1="441.47" x2="1197.92" y2="353.2" xlink:href="#linear-gradient-30"/><mask id="mask-7" x="1188.73" y="428.39" width="114.05" height="109.93" maskUnits="userSpaceOnUse"><g id="mask6_1_448" data-name="mask6 1 448"><path class="cls-7" d="M1195.5,460.33c-14.86,27.37-1.67,59.5,5.5,71.5l18-6c-3.17-10.5-6.7-34.8,4.5-48,14-16.5,41.5-14,54-11.5s27.5,0,25-11.5-17-20.5-29.5-24.5S1214.5,425.33,1195.5,460.33Z"/></g></mask><linearGradient id="linear-gradient-52" x1="1244.92" y1="472.06" x2="1247.38" y2="446.55" gradientTransform="matrix(1, 0, 0, -1, 0, 883.65)" gradientUnits="userSpaceOnUse"><stop offset="0" stop-color="#5e9dfd"/><stop offset="1" stop-color="#5442d2"/></linearGradient></defs><rect class="cls-8" x="762.01" y="110.83" width="537" height="161" transform="translate(349.56 988.11) rotate(-60)"/><rect class="cls-9" x="1142.01" y="110.83" width="537" height="161" transform="translate(539.56 1317.2) rotate(-60)"/><rect class="cls-10" x="189.32" y="10.83" width="537" height="201" transform="translate(132.5 452.15) rotate(-60)"/><rect class="cls-11" x="472.18" y="220.42" width="767" height="121" transform="translate(184.56 881.5) rotate(-60)"/><rect class="cls-12" x="-119.47" y="22.92" width="767" height="71" transform="translate(81.42 257.87) rotate(-60)"/><g class="cls-13"><circle class="cls-14" cx="1350" cy="247.83" r="9"/><circle class="cls-14" cx="1254" cy="120.83" r="4"/><circle class="cls-14" cx="1005" cy="122.83" r="7"/><circle class="cls-14" cx="85" cy="192.83" r="7"/><circle class="cls-14" cx="973" cy="87.83" r="5"/><circle class="cls-14" cx="302" cy="348.83" r="8"/><circle class="cls-14" cx="925" cy="443.83" r="5"/><circle class="cls-14" cx="645" cy="169.83" r="5"/><circle class="cls-14" cx="456" cy="129.83" r="5"/></g><g class="cls-13"><circle class="cls-14" cx="282" cy="765.83" r="9"/><circle class="cls-14" cx="255" cy="820.83" r="4"/><circle class="cls-14" cx="587" cy="613.83" r="9"/><circle class="cls-14" cx="616" cy="577.83" r="5"/><circle class="cls-14" cx="789" cy="812.83" r="10"/><circle class="cls-14" cx="724" cy="893.83" r="5"/><circle class="cls-14" cx="774" cy="1029.83" r="5"/><circle class="cls-14" cx="1133" cy="619.83" r="5"/><circle class="cls-14" cx="1331" cy="533.83" r="7"/><circle class="cls-14" cx="1190" cy="406.83" r="4"/></g><path class="cls-15" d="M1197,1055.83l243,76v-314l-127,3-72,106-87,54,25,45Z"/><path class="cls-16" d="M1440,817.83l-127,3,45,51.5,82-25.5Z"/><path class="cls-17" d="M1307,994.83l45.5,75.5,87.5,62.5-243-77Z"/><path class="cls-1" d="M1034.32,912l-5.4-25.63a2,2,0,0,1,1.59-2.37l18.2-3.39a2,2,0,0,1,2,.85L1066,904a2,2,0,0,1,.26,1.72l-6,19.19a2,2,0,0,1-2.91,1.13l-22.06-12.79A2,2,0,0,1,1034.32,912Z"/><g class="cls-18"><path class="cls-19" d="M1066.75,904.77l-33.31,8.44a1,1,0,0,0-.24,1.84l24.42,13.57a1,1,0,0,0,.8.07l2.1-.7a1,1,0,0,0,.63-.64l6.8-21.3A1,1,0,0,0,1066.75,904.77Z"/></g><path class="cls-19" d="M1111.36,873.16l3.74-12a1,1,0,0,0-1-1.3H1108a1,1,0,0,0-.81.41l-5.54,7.67a1,1,0,0,0,.33,1.46l7.94,4.37A1,1,0,0,0,1111.36,873.16Z"/><path class="cls-20" d="M69,317.83l-69-43v511.5l130-98,91-82-30-56,36.5-108L159,331.83Z"/><path class="cls-21" d="M190,381.83l-96,11,2-28,63-33.5Z"/><path class="cls-22" d="M166,507.83l61.5-66-36.5,108Z"/><path class="cls-23" d="M46,599.83l84,88c-43.15,32.41-129,97-130,98H0c.39-1.4.16-121,0-181Z"/><path class="cls-24" d="M96.5,364.83l62.5-33.5-90-14-69-43v70.5l94,48Z"/><path class="cls-25" d="M1244.17,241.41l-29.27-41.64L1171,235.49h0c-4.67,3.28-2.93,13.81,3.89,23.51s16.13,14.91,20.81,11.63h0Z"/><g class="cls-26"><path class="cls-27" d="M1242.13,230.21,1254,247.13l-63.26,38.62-11.89-16.92Z"/><path class="cls-28" d="M1223.38,203.53l-2.29-3.25-57.77,46.43,2.29,3.25Z"/></g><ellipse class="cls-29" cx="1229.54" cy="220.59" rx="10.34" ry="25.45" transform="translate(96.74 747.08) rotate(-35.1)"/><path class="cls-3" d="M261.61,202.22c0-11.86,9.81-22.44,10.39-25.34L264.84,169a82.28,82.28,0,0,1-10.75,17.13c-6.47,7.49-11.82,7.85-18,6.28s-13.64-5.7-14.23-10.92,10-16.42,14.33-18.91l-6.45-6.78c-7,2.9-14.47,21.1-24,27.33-14.27,9.28-19.09,14.16-19.65,24.41-.46,8.66,3.86,15.62,13.8,19.1s11.69,7.54,15.2,11,21.64,9.86,28.07-7S261.61,224.21,261.61,202.22Z"/><g class="cls-30"><path class="cls-31" d="M236.5,209.83c7.5-3.41,5.83-12.84,6-18l17.5-28,17.5,11-15,38.5-15,23-15.5,11-29.5-6.5-29-27.5c-1-6.67-1.3-17.1,5.5-5.5,8.5,14.5,24,.5,30,12.5s16.5,9.5,16.5,3.5C225.5,214.83,231,212.33,236.5,209.83Z"/></g><path class="cls-32" d="M528,762.51,321.07,991.61a21,21,0,0,0,3.67,31.38l126.13,86.8a32,32,0,0,0,43.32-6.61L706.61,832.47a20,20,0,0,0-9.26-31.27L560,754.23A30,30,0,0,0,528,762.51Z"/><path class="cls-33" d="M525.78,752.49,321,979.56a21,21,0,0,0,3.68,31.35l129.87,89.52a25,25,0,0,0,33.92-5.23L701.74,821a20,20,0,0,0-9.37-31.23L557.69,744.16A30,30,0,0,0,525.78,752.49Z"/><path class="cls-34" d="M569.62,936,447.49,875.78a6,6,0,0,1-1.87-9.33l96.63-111a6,6,0,0,1,6.66-1.67l133.74,51a6,6,0,0,1,2.46,9.45L586.56,932.37A14,14,0,0,1,569.62,936Z"/><path class="cls-35" d="M460.5,1070.4,349.89,990.66a8,8,0,0,1-1.16-12l26.75-28.48a10,10,0,0,1,12.44-1.73l116,69.57a10,10,0,0,1,2.77,14.68l-26.86,34.86A14,14,0,0,1,460.5,1070.4Z"/><path class="cls-36" d="M437,893.83l115,59.5"/><path class="cls-36" d="M423,910.83l115,62.5"/><path class="cls-36" d="M408,927.83l57.5,32.75"/><path class="cls-37" d="M365,1020.83l59,41.5"/><path class="cls-38" d="M744.5,734.83c14.4-7.6,20.33-29.5,21.5-39.5h-8.5l-19,8.5C734.5,717.33,730.1,742.43,744.5,734.83Z"/><path class="cls-39" d="M673,682.33c6.8-15.2,29.5-18.67,40-18.5l-14.5,22C687.17,691,666.2,697.53,673,682.33Z"/><path class="cls-40" d="M663.5,836.33c-8-5.6-15.67-30.67-16.5-42.5-5.5,3.83-13.8,12.2-19,15-6.5,3.5-23.5,13-15-9,6.8-17.6,32.17-40.67,44-50,10-20,37-67.4,65-97,35-37,88-42,107.5-46s91.5-17,96-3-12,45.5-46,65.5-64,21-98.5,24-68,25.5-88.5,46.5-20,51-20,63S673.5,843.33,663.5,836.33Z"/><g class="cls-41"><path class="cls-42" d="M732,694.33c25.2-15.6,80.17-23.17,101.5-24l8,17-91,24-72,50C686,731.83,706.8,709.93,732,694.33Z"/><path class="cls-43" d="M667,759.33c-3.58-1.3-7.18-5.33-9.29-8.23a2.12,2.12,0,0,0-2.94-.51L622.43,774a2,2,0,0,0-.65.8l-14.85,33.06a2,2,0,0,0,.11,1.85l4.51,7.52a2,2,0,0,0,2.6.77L644,803.33a2,2,0,0,1,2.78,1.15l11,32a2,2,0,0,0,1.08,1.17l7.13,3.17a2,2,0,0,0,2-.22l6.32-4.74a2,2,0,0,0,.8-1.48l4.3-71.3a2.14,2.14,0,0,0-2.14-2.22A32.53,32.53,0,0,1,667,759.33Z"/></g><path class="cls-44" d="M744,609.83c24.5-3,61,0,71.5,3a174.06,174.06,0,0,0-36.5,9c-11.61,4.34-28.5,14-28.5,14-6.17-.17-17.5-1.3-25.5-6.5C715,622.83,717.14,613.12,744,609.83Z"/><path class="cls-45" d="M914,611.83h12a10.65,10.65,0,0,1,0,2.5,10.81,10.81,0,0,1-1,2.5l-8.19-.82a3,3,0,0,0-2.81,1.33l-12.5,19,9.72-22.69A3,3,0,0,1,914,611.83Z"/><path class="cls-46" d="M836,661.83c-1.6-11.2,4.33-24.67,7.5-30-4,3.5-12.3,13.6-13.5,26s4.83,24,7,28.5l6-1.5,3.5-1A41.53,41.53,0,0,1,836,661.83Z"/><path class="cls-47" d="M807,728.83c19.2-8.4,34-33.84,39-45.5l-7.18.36c-8.09.42-16,2.7-22.48,7.62a103.38,103.38,0,0,0-13.34,12C793,714.33,783,739.33,807,728.83Z"/><circle class="cls-48" cx="871.5" cy="646.33" r="11.5"/><circle class="cls-49" cx="871.5" cy="646.33" r="8.5"/><path class="cls-50" d="M543,857.33c-7.2-3.6,3.67-20.5,10-28.5h16.5C563.67,839.83,550.2,860.93,543,857.33Z"/><path class="cls-51" d="M504,852.83c-14.4-5.6-18.33-41-18.5-58l28,5.5C516.33,820.16,518.4,858.43,504,852.83Z"/><path class="cls-50" d="M513.5,798.83l-28-2s.23,4.88.5,8c.3,3.52,1,9,1,9a42.56,42.56,0,0,0,17,7c4.44.67,11.5,0,11.5,0s-.15-6.41-.5-10.5C514.61,805.82,513.5,798.83,513.5,798.83Z"/><path class="cls-52" d="M561,912.83c-3.41,5.3-9.47,10.71-12.51,13.12a1,1,0,0,1-1,.1L457,880.83c23.17,2.17,72.7,5.2,85.5,0,16-6.5,25-43.5,0-63.5s-70-20-103-30-40-53.5,10-67.5,87,5,109,24,39.5,56,36,93.5c-2.77,29.66-19.78,52.32-28.21,60.23a1,1,0,0,0-.32.67A35.34,35.34,0,0,1,561,912.83Z"/><g class="cls-53"><path class="cls-54" d="M522,738.33c2-8-2-14.5-8-19l30,1.5,31.5,27.5,26.5,63-3.5,51.5-23,42h-57c6.5-1.83,38.16-8.88,48-28.5,10.79-21.5,7-52.5-14-73-16.8-16.4-54.67-27.83-71.5-31.5C506.5,761.83,518.75,751.33,522,738.33Z"/><path class="cls-55" d="M587,785.33s-17-27-39.5-34l20-3.5,11,6C587.67,771.5,587,785.33,587,785.33Z"/><path class="cls-56" d="M540.5,879.33c0,16,17.67,19.33,26.5,19v11.5l-12,20.5h-8.5l-90-43.5-5-7.5C481.17,872.66,540.5,863.33,540.5,879.33Z"/><path class="cls-57" d="M485.88,893.89C532.45,912.56,555.94,910,569,906.47a95.7,95.7,0,0,0,9.88,8.3,70.38,70.38,0,0,0,9.25,4.8l2.48,5.5-12.87,13.35-16.7,8L543.37,945l-23.1-19.81C489.4,907,439.31,875.23,485.88,893.89Z"/></g><path class="cls-58" d="M425.81,767.83c-10.81-12.5,0-30,10.19-29,0,0-6.68,6-8.5,13.5A70.56,70.56,0,0,0,425.81,767.83Z"/><path class="cls-58" d="M611.79,851.61c-2.77,3.73-8.86.76-14.81-3.89-7.94-6.19-10.65-16.68-9.16-26.64l.53-3.53C598.16,825.21,616.59,845.15,611.79,851.61Z"/><path class="cls-58" d="M587.5,716.33c-20,2-44.33,13.5-54,19,.83,5.17,6.3,16,21.5,18,19,2.5,50.5-16.5,57-25S612.5,713.83,587.5,716.33Z"/><ellipse class="cls-48" cx="482.5" cy="723.33" rx="13.5" ry="8.5"/><ellipse class="cls-49" cx="482.5" cy="721.83" rx="10.5" ry="6"/><path class="cls-59" d="M88.26,933.31l36.37,8.36c.41-1.92,1.58-3.73,3,4.41s-1.84,19.21-3.64,23.72c-2.92-4.82-11-15.44-19.82-19.39S89.87,937.36,88.26,933.31Z"/><path class="cls-60" d="M192.92,953.06l-12.26-8.47a1,1,0,0,1-.25-1.4l6.85-9.58a1,1,0,0,1,1.77.29L194.45,952A1,1,0,0,1,192.92,953.06Z"/><path class="cls-59" d="M118.35,893.43l15.35-3.85c-.45,20.63-3.33,59.1-11.22,48-6.66-9.38-8.85-26.54-9.26-37.46A6.67,6.67,0,0,1,118.35,893.43Z"/><path class="cls-61" d="M129.06,893.81c-10.47,14.94-10.27,36.27-8.26,49.23a10.27,10.27,0,0,0,7.22,8.21c12.68,3.84,24,4.45,35.71,1.23,19.7-5.44,37.89-22.29,35-37.92s-16.93-27.79-25.93-32.2S144.54,871.71,129.06,893.81Z"/><path class="cls-49" d="M179.49,917.52c2-11.16,11.12-13.76,15.4-13.67l2.21,4.51a27.57,27.57,0,0,0-9,1.61C184.76,911.37,181,915.59,179.49,917.52Z"/><path class="cls-49" d="M152.15,928.78c-6.06-6.4-6.91-15.76-7.06-19.88,1.24,3.3,3.26,12.38,8.43,18.1,7.75,8.58,13.63,9.13,18.66,10.73C167.71,937.26,159.23,936.25,152.15,928.78Z"/><path class="cls-59" d="M159.61,970.54l2.1-30.21-6,6-.3.32a14,14,0,0,0-2.05,16.45l4.39,7.85A1,1,0,0,0,159.61,970.54Z"/><ellipse class="cls-48" cx="163.2" cy="912.49" rx="6.35" ry="9.93" transform="translate(-320.65 121.82) rotate(-21.32)"/><ellipse class="cls-49" cx="162.68" cy="912.39" rx="3.97" ry="7.54" transform="translate(-320.65 121.62) rotate(-21.32)"/><path class="cls-62" d="M966.12,1161.94c-3.38-3.49-10.12-11-10.12-15.11l18,5.5-4.77,9.14A1.93,1.93,0,0,1,966.12,1161.94Z"/><path class="cls-63" d="M1019,1141.83a64.53,64.53,0,0,0-17,2.49l0,0c-.4.15-6.45,2.62-4.48,10.49,1.9,7.61,10.15,16.89,13.53,19.63a.88.88,0,0,0,1,.09c3.19-1.78,9.3-6.55,15-12.22a74.64,74.64,0,0,0,12.59-17.08.83.83,0,0,0-.55-1.2A110.81,110.81,0,0,0,1019,1141.83Z"/><path class="cls-62" d="M915,1136.33c-2.4-5.6-3.33-14.33-3.5-18l18.5,12.5-6.6,12.42a2.54,2.54,0,0,1-4.41.4A42.67,42.67,0,0,1,915,1136.33Z"/><path class="cls-64" d="M971.11,1119.42,990,1135.53a1,1,0,0,0,1.58-1.3c-3.41-6.17-9-16.75-12.12-24.9-3-8-6.22-20.39-6.88-23a1,1,0,0,0-.6-.67,91.13,91.13,0,0,0-12.52-3.82,82.64,82.64,0,0,0-11.66-1,1,1,0,0,0-.83,1.52l23.91,36.83A1,1,0,0,0,971.11,1119.42Z"/><path class="cls-65" d="M889.5,1074.83c.88,20.24,12,34.5,21.5,44,5.19,5.19,17,14.28,28,20.5,16.5,9.33,37,16,52,16.5s17-2,17-5.5-28.43-23.39-46-51c-14-22-26.5-31.8-40.5-39C908.54,1053.66,888.5,1051.83,889.5,1074.83Z"/><ellipse class="cls-48" cx="922.5" cy="1078.83" rx="6.5" ry="9"/><ellipse class="cls-49" cx="922.5" cy="1078.83" rx="4.5" ry="7"/><path class="cls-66" d="M926,1105.33c9.5.5,8.83-13.33,8-21-1,4.83-2,14.5-6,16.5-5,2.5-12.33-.67-17-2A22.68,22.68,0,0,0,926,1105.33Z"/><path class="cls-62" d="M907.5,1075.83c-3.2-11.2-10.33-15.33-13.5-16a13.9,13.9,0,0,0-1.5,1.5,13.56,13.56,0,0,0-1.5,3C891.5,1063.83,895.5,1065.43,907.5,1075.83Z"/><path class="cls-67" d="M1172,723.33c-7.6,3.2-21.67-1.67-26-5.5l20-7.5,70-40.5,47-62c-1.17,7.16-3.13,24.3-6,34.5-4.5,16-17.5,37.5-29.5,46.5-15.86,11.89-23.5,5-31,14.5s-15.5,13-25,10.5C1183.76,711.79,1181.5,719.33,1172,723.33Z"/><path class="cls-68" d="M1191.5,664.33c34.8-12.4,58.17-39.5,65.5-51.5l30-26.5c-.83,15.66-9.4,51-37,79-34.5,35-86,51.5-106.5,53.5s-62,.5-68.5-20.5c-4.86-15.71,14.48-19.5,26.5-19.5C1118.5,678.83,1156.7,676.73,1191.5,664.33Z"/><g class="cls-69"><path class="cls-70" d="M1142.5,687.33c20-2,66.1-11.2,90.5-32"/><path class="cls-71" d="M1284.18,628.28c-33.73,25-60.94,13.27-70.33,4.26l8.8-23.24,48.47-17.64C1289.52,593.43,1317.91,603.24,1284.18,628.28Z"/></g><circle class="cls-48" cx="1110" cy="695.83" r="8"/><circle class="cls-49" cx="1110" cy="695.83" r="6"/><path class="cls-72" d="M1081,697.83l-5,3,2,3.5,3-2.5,12,3Z"/><path class="cls-73" d="M1170.29,451l-61.54,11.07a5,5,0,0,0-2.54,8.56l148.16,139.81a14,14,0,0,0,15.22,2.64l53.28-23.27a5,5,0,0,0,1.33-8.31L1182.1,454.38A14,14,0,0,0,1170.29,451Z"/><path class="cls-74" d="M1172.22,444.56l-60.55,11a5,5,0,0,0-2.56,8.54l146.13,139.27a14,14,0,0,0,15.31,2.68l52.39-23.12a5,5,0,0,0,1.34-8.28L1184.11,448A14,14,0,0,0,1172.22,444.56Z"/><path class="cls-75" d="M1189.32,529l-50.41-46.78a5,5,0,0,1,2.28-8.53l43.2-10a12,12,0,0,1,10.76,2.8l48,43.51a5,5,0,0,1-1.81,8.45l-40.1,13.13A12,12,0,0,1,1189.32,529Z"/><path class="cls-76" d="M1211.5,545.33l44-17.5"/><path class="cls-76" d="M1221.5,554.33l44-17.5"/><path class="cls-76" d="M1231.5,564.33l22-8.75"/><path class="cls-76" d="M1282.5,593.33l22-8.75"/><path class="cls-77" d="M1239.5,482.83c8.8-.8,13.33-12.67,14.5-18.5l-10.5,1C1238.5,471.49,1230.7,483.63,1239.5,482.83Z"/><path class="cls-7" d="M1195.5,460.33c-14.86,27.37-1.67,59.5,5.5,71.5l18-6c-3.17-10.5-6.7-34.8,4.5-48,14-16.5,41.5-14,54-11.5s27.5,0,25-11.5-17-20.5-29.5-24.5S1214.5,425.33,1195.5,460.33Z"/><g class="cls-78"><path class="cls-79" d="M1211.5,479.33c8.4-22.4,36.83-22.67,50-20.5a66.91,66.91,0,0,1,23,8.5l-25.5,3.5-35.5,20.5,4,34.5-12.5,12.5C1211,527.83,1203.1,501.73,1211.5,479.33Z"/></g><path class="cls-80" d="M1293.5,465.33c1.67,5,1.1,16.2-14.5,21"/><path class="cls-80" d="M1297,463.83c4.17,5.66,9.1,19.5-4.5,29.5"/><path class="cls-80" d="M1301.5,455.83c4.33-1,12.3-5.3,9.5-14.5"/><path class="cls-80" d="M1301,460.33c6.5,1.33,20,.3,22-14.5"/><path class="cls-81" d="M1234.5,417.33c11-4,23,11,27.5,19.5l-11,.5C1241.67,432.49,1223.74,421.24,1234.5,417.33Z"/><circle class="cls-48" cx="1288" cy="453.83" r="6"/><circle class="cls-49" cx="1288" cy="453.83" r="4"/><path class="cls-82" d="M1265.5,453.33c-.4-4.8,2.5-10.34,4-12.5a14.56,14.56,0,0,0-7,11.5c-.4,6.4,2.17,11,3.5,12.5l5,.5C1268,462.83,1265.9,458.13,1265.5,453.33Z"/></svg>