<svg preserveAspectRatio="none" id="Layer_1" data-name="Layer 1" xmlns="http://www.w3.org/2000/svg" xmlns:xlink="http://www.w3.org/1999/xlink" viewBox="0 0 1440 933.66"><defs><style>.cls-1{fill:url(#linear-gradient);}.cls-2{fill:url(#linear-gradient-2);}.cls-3,.cls-4{fill:#002766;}.cls-10,.cls-11,.cls-12,.cls-13,.cls-14,.cls-15,.cls-16,.cls-38,.cls-39,.cls-4,.cls-7,.cls-8{fill-rule:evenodd;}.cls-5{fill:#021e50;}.cls-6{mask:url(#mask);}.cls-7{fill:#6cffed;}.cls-32,.cls-7{opacity:0.2;isolation:isolate;}.cls-8{fill:url(#linear-gradient-4);}.cls-9{fill:url(#linear-gradient-5);}.cls-10{fill:url(#linear-gradient-6);}.cls-11{fill:url(#linear-gradient-7);}.cls-12{fill:url(#linear-gradient-8);}.cls-13{fill:url(#linear-gradient-9);}.cls-14{fill:url(#linear-gradient-10);}.cls-15{fill:url(#linear-gradient-11);}.cls-16{fill:url(#linear-gradient-12);}.cls-17{fill:#032968;}.cls-18{fill:#001439;}.cls-19,.cls-30,.cls-36,.cls-37{fill:none;stroke-linecap:round;}.cls-19{stroke:#548e8a;}.cls-19,.cls-30{stroke-width:4px;}.cls-20{fill:#4c817a;}.cls-21{fill:url(#linear-gradient-13);}.cls-22{fill:url(#linear-gradient-14);}.cls-23{fill:url(#linear-gradient-15);}.cls-24{fill:url(#linear-gradient-16);}.cls-25{fill:url(#linear-gradient-17);}.cls-26{fill:url(#linear-gradient-18);}.cls-27{fill:url(#linear-gradient-19);}.cls-28{fill:url(#linear-gradient-20);}.cls-29{fill:url(#linear-gradient-21);}.cls-30,.cls-36{stroke:#27459d;}.cls-31{mask:url(#mask-2);}.cls-32{fill:url(#linear-gradient-23);}.cls-33{fill:url(#linear-gradient-24);}.cls-34{fill:url(#linear-gradient-25);}.cls-35{fill:url(#linear-gradient-26);}.cls-36,.cls-37{stroke-width:2px;}.cls-37{stroke:#edecf2;}.cls-38{fill:url(#linear-gradient-27);}.cls-39{fill:url(#linear-gradient-28);}</style><linearGradient id="linear-gradient" x1="1268.84" y1="2066.56" x2="1290.31" y2="1765.42" gradientTransform="matrix(1, 0, 0, -1, 0, 2404)" gradientUnits="userSpaceOnUse"><stop offset="0" stop-color="#40bce3"/><stop offset="1" stop-color="#1e329e"/></linearGradient><linearGradient id="linear-gradient-2" x1="339.33" y1="1876.99" x2="709.9" y2="1493.59" gradientTransform="matrix(1, 0, 0, -1, 0, 2404)" gradientUnits="userSpaceOnUse"><stop offset="0" stop-color="#2f50b4"/><stop offset="1" stop-color="#0b2160"/></linearGradient><mask id="mask" x="1167.61" y="393.86" width="232.87" height="263.63" maskUnits="userSpaceOnUse"><g id="mask0_1_23" data-name="mask0 1 23"><path class="cls-1" d="M1254.43,637.33c14.53,1.34,20,5.33,21.17,8.25s1.43,11.91,1.43,11.91l31.07-6.71c-.91-1.11-2.33-10.55-.69-15.48,2-6.17,3.74-10.67,21.92-22.53s46.76-39,58-56.42,22.09-47.24,1.65-45.74-31.82,30.92-48,56.67c-12.92,20.61-31.46,40.25-39.12,47.5a157.61,157.61,0,0,1,6.5-27.55c5.3-16.43,26.56-54.59,30.19-87s-9.58-69-26.1-61.75-9.3,30.27-7.65,52.7c1.32,18-3.46,43.88-6,54.59-.63-6.3-2.42-22-4.53-34.26-2.63-15.35-9.34-51.95-17.48-80.93s-21.79-44-31-33.31-3.57,33.35,1.72,57.52,23.79,78,32.79,104.88c7.2,21.53,8.41,50.69,8.11,62.57-1.74-1-8.08-7.72-19.47-26.14-14.22-23-19-40.21-32.8-77.8s-42.33-57.55-47.55-33.1,22.86,45,34.64,75.66c9.43,24.58,30.93,50,40.49,59.69-6.5.15-23.64-2.47-40.14-14.09-20.62-14.53-24.82-30.76-40.76-36.11s-23.63,12.77-1.38,35.7S1236.25,635.66,1254.43,637.33Z"/></g></mask><linearGradient id="linear-gradient-4" x1="302.29" y1="2139.04" x2="203.07" y2="1828.11" gradientTransform="matrix(1, 0, 0, -1, 0, 2404)" gradientUnits="userSpaceOnUse"><stop offset="0" stop-color="#2858b6"/><stop offset="1" stop-color="#13348e"/></linearGradient><linearGradient id="linear-gradient-5" x1="635.33" y1="1854.52" x2="535.83" y2="1556.52" gradientTransform="matrix(1, 0, 0, -1, 0, 2404)" gradientUnits="userSpaceOnUse"><stop offset="0" stop-color="#001339"/><stop offset="1" stop-color="#021e50"/></linearGradient><linearGradient id="linear-gradient-6" x1="1029.82" y1="1798.98" x2="981.32" y2="1627.98" gradientTransform="matrix(1, 0, 0, -1, 0, 2404)" gradientUnits="userSpaceOnUse"><stop offset="0" stop-color="#814ee0"/><stop offset="1" stop-color="#2c30b1"/></linearGradient><linearGradient id="linear-gradient-7" x1="1072.5" y1="1772.5" x2="1072.5" y2="1626.5" gradientTransform="matrix(1, 0, 0, -1, 0, 2404)" gradientUnits="userSpaceOnUse"><stop offset="0" stop-color="#814ee0"/><stop offset="1" stop-color="#3031b3"/></linearGradient><linearGradient id="linear-gradient-8" x1="857.77" y1="1782" x2="857.77" y2="1560" gradientTransform="matrix(1, 0, 0, -1, 0, 2404)" gradientUnits="userSpaceOnUse"><stop offset="0" stop-color="#814ee0"/><stop offset="1" stop-color="#333ab6"/></linearGradient><linearGradient id="linear-gradient-9" x1="999.13" y1="1820.5" x2="999.13" y2="1602" gradientTransform="matrix(1, 0, 0, -1, 0, 2404)" gradientUnits="userSpaceOnUse"><stop offset="0" stop-color="#b14ee0"/><stop offset="1" stop-color="#626af9"/></linearGradient><linearGradient id="linear-gradient-10" x1="908.79" y1="1821.5" x2="908.79" y2="1552.5" xlink:href="#linear-gradient-9"/><linearGradient id="linear-gradient-11" x1="955.25" y1="1749" x2="955.25" y2="1563.5" gradientTransform="matrix(1, 0, 0, -1, 0, 2404)" gradientUnits="userSpaceOnUse"><stop offset="0" stop-color="#814ee0"/><stop offset="1" stop-color="#626af9"/></linearGradient><linearGradient id="linear-gradient-12" x1="918.16" y1="1734.5" x2="918.16" y2="1582" gradientTransform="matrix(1, 0, 0, -1, 0, 2404)" gradientUnits="userSpaceOnUse"><stop offset="0" stop-color="#814ee0"/><stop offset="1" stop-color="#272eae"/></linearGradient><linearGradient id="linear-gradient-13" x1="139.04" y1="1607.22" x2="148.8" y2="1563.1" gradientTransform="matrix(1, 0, 0, -1, 0, 2404)" gradientUnits="userSpaceOnUse"><stop offset="0" stop-color="#a3db6a"/><stop offset="1" stop-color="#326d98"/></linearGradient><linearGradient id="linear-gradient-14" x1="25.67" y1="1585.74" x2="72.74" y2="1569.25" xlink:href="#linear-gradient-13"/><linearGradient id="linear-gradient-15" x1="82.3" y1="1544.86" x2="95.66" y2="1493.6" xlink:href="#linear-gradient-13"/><linearGradient id="linear-gradient-16" x1="169.63" y1="1743.95" x2="225.49" y2="1720.61" xlink:href="#linear-gradient-13"/><linearGradient id="linear-gradient-17" x1="124.22" y1="1700.86" x2="166.73" y2="1686.99" xlink:href="#linear-gradient-13"/><linearGradient id="linear-gradient-18" x1="179.52" y1="1660.48" x2="188.46" y2="1617.65" xlink:href="#linear-gradient-13"/><linearGradient id="linear-gradient-19" x1="77.42" y1="1647.17" x2="123.05" y2="1630.08" xlink:href="#linear-gradient-13"/><linearGradient id="linear-gradient-20" x1="327.85" y1="1874.82" x2="723.27" y2="1465.71" gradientTransform="matrix(1, 0, 0, -1, 0, 2404)" gradientUnits="userSpaceOnUse"><stop offset="0" stop-color="#304ea8"/><stop offset="1" stop-color="#0c1f55"/></linearGradient><linearGradient id="linear-gradient-21" x1="462.35" y1="1815" x2="687.66" y2="1372.27" gradientTransform="matrix(1, 0, 0, -1, 0, 2404)" gradientUnits="userSpaceOnUse"><stop offset="0" stop-color="#4d70d9"/><stop offset="1" stop-color="#143080"/></linearGradient><mask id="mask-2" x="331.83" y="573" width="436.17" height="384.5" maskUnits="userSpaceOnUse"><g id="mask1_1_23" data-name="mask1 1 23"><path class="cls-2" d="M487.7,590l244,184.73a15,15,0,0,1,1.65,22.47L619.85,912.85a14,14,0,0,1-19.2.73L337,683.05a15,15,0,0,1,2.48-24.35L356.61,649a9,9,0,0,1,9.83.62l4.21,3.15a12,12,0,0,0,13.21.78l69.69-40.37a4,4,0,0,0,.27-6.75l-5.43-3.76a4,4,0,0,1,.35-6.79l14-7.71A23,23,0,0,1,487.7,590Z"/></g></mask><linearGradient id="linear-gradient-23" x1="665.27" y1="1812.71" x2="478.76" y2="1361.28" gradientTransform="matrix(1, 0, 0, -1, 0, 2404)" gradientUnits="userSpaceOnUse"><stop offset="0" stop-color="#537eff"/><stop offset="1" stop-color="#143080"/></linearGradient><linearGradient id="linear-gradient-24" x1="909.76" y1="2062.16" x2="834.14" y2="1772" gradientTransform="matrix(1, 0, 0, -1, 0, 2404)" gradientUnits="userSpaceOnUse"><stop offset="0" stop-color="#2a479d"/><stop offset="1" stop-color="#0c1f54"/></linearGradient><linearGradient id="linear-gradient-25" x1="878.58" y1="1981.26" x2="871.69" y2="1854.55" xlink:href="#linear-gradient-21"/><linearGradient id="linear-gradient-26" x1="868.77" y1="2031.87" x2="883.67" y2="1860.79" gradientTransform="matrix(1, 0, 0, -1, 0, 2404)" gradientUnits="userSpaceOnUse"><stop offset="0" stop-color="#304ea8"/><stop offset="1" stop-color="#091f60"/></linearGradient><linearGradient id="linear-gradient-27" x1="586.26" y1="1902.44" x2="620.57" y2="1728.93" gradientTransform="matrix(1, 0, 0, -1, 0, 2404)" gradientUnits="userSpaceOnUse"><stop offset="0" stop-color="#ff6e89"/><stop offset="1" stop-color="#ffb16b"/></linearGradient><linearGradient id="linear-gradient-28" x1="1155.81" y1="1689.31" x2="1433.34" y2="1498.19" xlink:href="#linear-gradient-13"/></defs><path class="cls-3" d="M1287.81,323.19c21.78,1.74,42.08,14.86,49.5,21.2l40.93-10.92c-3.92-1.54-12.4-6.57-14.92-14.33-3.14-9.71,5.94-27.67,15.4-46.29s12-32.05,1.14-35.26-16.27,7.67-20.83,15.54-15.92,21.45-20.83,7.22,14.4-52.12,13.36-68.49-10.29-17.79-19-11-10.43,31.64-17.44,32.4-9.88.42-18-30.15-6.33-46.6-9.68-61.24-24.39-20.69-28.74.45c-3.48,16.91,8.87,51.28,14.58,67.15,3.25,10.79,7.77,32.44-.13,32.78-9.88.41-20-23-28.09-32.47s-27.91-13.09-21.83,9.71,16.17,35.64,32.65,49.56,34,29.77,27,36.65-18.89-2.18-32-7.56-31.12-2.25-25.24,15.61S1260.59,321,1287.81,323.19Z"/><path class="cls-3" d="M1231.64,305c-5.21,11.41-4.28,25.27-3.17,30.77l-16.9,17.5c.32-2.4.16-8.06-3-11.49-4-4.29-15.55-4.74-27.53-5.18s-19.44-2.93-18-9.28,8.39-6,13.62-6.12,15.21-2,9.44-8.44-30.19-7.31-38.12-12.4-6.06-10.14-.22-12.64,18.79,3.6,21.13.29,3-4.84-10.11-17.47-21.63-16.18-28-21.95-3.59-18,8.24-14.3c9.46,3,23.28,18.76,29.65,26.06,4.51,4.64,14.12,12.95,16.49,9.08,3-4.85-6-16.45-8.46-23.16s1.22-17.67,11-8.26,13.38,18.07,15.77,30.23,5.45,25.39,10.87,23.77,4.18-10.09,5.13-18.17,7.56-16.25,14.89-8.32S1238.14,290.7,1231.64,305Z"/><path class="cls-3" d="M1059.29,380.3c-2,5.93,3.77,12,6.92,14.34L1038,404.58c-.46-2.63-1.67-8.46-2.82-10.66l0-.06c-1.43-2.75-3.07-5.88-13.31-7.37s-15.56.83-22.08,2.19-22.9,2.47-33,.42-13.76.65-18.25-1.5-1.28-10.27,1.74-12.27,6.25-.8,8.08.42a51.59,51.59,0,0,0,21,6.6c8.47.75,20.28-1.55,25.13-2.79-3.35-.69-12.79-2.68-23.74-5.16-13.68-3.11-19.41-4.82-30.07-9.92s-17.58-3.6-23.85-4.19-8.34-7.78-6.31-11.3a4.68,4.68,0,0,1,5.81-2l12.33,5.91c-3.81-3.78-11.72-12.1-12.77-15.08-1.31-3.74-.7-8.61,6.1-9.15s7.27,10,13.68,19,14.55,13.52,26.72,17.63,30,4.36,35.71,6.07,16.63,4.86,17,3.33-1.09-7.08-9.77-10.55-25.51-3.6-35.56-5.65-11.95-7.45-10.07-11.37,4.25-3.83,12.51-.22a64,64,0,0,0,17.88,4.43,57.67,57.67,0,0,0-9.51-11.11c-5.36-4.63-19.82-12.59-27.38-15.53S946.77,323,943.5,319s-.23-13.9,4.33-15.51,8.53,3,17.56,10.13a146.92,146.92,0,0,0,20.94,13.14,163.09,163.09,0,0,0-8.92-17.38c-4.28-6.88-10.21-11.78-12.23-16.2s-.83-7.64,4.84-10.1c4.52-2,8.14,1.95,9.38,4.16,2.24,5.89,8,20.39,13.33,31.2S1003.19,334,1005.11,335c-1.14-4.11-3.55-12.73-4.14-14.39-.73-2.08,2.69-5.61,8.83-4s4.76,9.52,6.34,20.62,4.13,14.39,6.25,16.44,15.44,16,17.71,10.55,1.47-19.63.28-24.34-5.72-17.57-15.16-24.5-21.34-11.6-27.38-15.53-4.36-11-1.36-14.44,9.88.25,16.1,6c5,4.59,16.47,14.56,21.6,19-1.33-4.66-4.91-15.25-8.55-20.3-4.56-6.32-14.73-7.4-12.44-11.47,1.84-3.26,5.87-1,7.66.56-2.08-2.37-7.09-7.94-10.48-11.23-4.24-4.1-4.21-10.63,2.45-11.58s12.84,11.32,16.72,18.35c3.1,5.62,7.25,14.85,8.94,18.77,1.68-4.95,5.15-16.09,5.62-21.1.59-6.27-3.28-13.3-1.38-15.83s7.83-5.56,11.15,1.2c2.65,5.4.07,17.85-1.55,23.39,1.82-1.88,5.68-5.83,6.56-6.51,1.1-.85,9.94-12.82,13.25-6.06s3.14,12.88.38,14.31-12.92.36-18.25,6.43-7,16-7.79,24.2c-.67,6.57,1.81,16.61,3.13,20.81.67-4.28,2.08-14,2.33-18.54.32-5.71,1.5-10.32,5.23-11.63s9,.54,11.34,4.39,2.19,6.22-2.32,10.61-7.21,10-11.12,25.36c-3.13,12.3-1.86,21.18-.84,24.08,1-1.27,3.32-4.34,5.17-6.48,2.32-2.69,4.93-4.54,10.94-11.32s10.1-11,14-21.24,1.5-18.24,6.19-20.82,12.51-.22,10.56,7.47c-1.57,6.14-12.44,23.81-17.68,31.87,4.61-4.11,14.28-12.4,16.05-12.65,2.22-.32,6.17,2.95,7.07,6.83.72,3.11-2.22,5.6-3.78,6.46-5.81,2.05-18.66,6.86-23.62,9.72C1072.88,362,1061.8,372.88,1059.29,380.3Z"/><path class="cls-4" d="M543.62,436s-.64-7.84,3.37-13.5c3.62,0,8.83-.83,11.63-3.91a19,19,0,0,0,3.33-5.82c1.3-3.14,2.46-5.92,6.72-6.76,3.58-.7,4.87.48,6.31,1.78a8.21,8.21,0,0,0,6.28,2.58c3.88.05,5.27-3.65,6.54-7,1.1-2.94,2.11-5.63,4.61-5.34l.41,0,.2,0c4.91.58,7.07.83,10.48-3.09a19.76,19.76,0,0,0,2.65-4.51c1.73-3.65,3.36-7.09,8.19-5.17,3.36,1.34,3.86,3.2,4.39,5.16.57,2.13,1.17,4.36,5.43,6.17s6.53.26,8.48-1,3.39-2.18,5.81.21c4,3.9,2.64,10.34,1.48,13.07,4-4.37,10.57-14.89,4.89-22.05a27.5,27.5,0,0,1-5.2-11c-.91-3.37-1.59-5.91-5-7.43a7.89,7.89,0,0,0-7,0c-1.85.7-3.52,1.33-6.15-.59a16.5,16.5,0,0,1-4.31-4.95c-1.41-2.21-2.61-4.1-6.07-4.66-4.79-.78-6.77,1.11-8.79,3-1.74,1.65-3.5,3.33-7.1,3.35a19.75,19.75,0,0,1-7.87-2c-3.87-1.59-7.79-3.2-14.14-.84-5.43,2-6.75,6.06-8,9.76-.73,2.23-1.42,4.34-2.95,5.82-.09-.54-.19-1.07-.28-1.59-1.7-9.47-2.91-16.21,6.5-23.6,8.88-7,7.63-16.41,5.9-20.25-1.27-2.77-2-9.3,5.18-13.33,8.11-4.54,6.6-11.94,5.42-17.69-.12-.63-.25-1.24-.36-1.82-.85-4.65.81-7.11,2.58-9.73.48-.72,1-1.45,1.43-2.24,2.1-3.68,3-8.06,0-15-2.34-5.58-6.49-7.39-8.28-7.59,2.46,3.3,6.19,11,1.52,15.13-1.45,1.3-2.7,2.28-3.77,3.13-3.25,2.56-4.94,3.89-5.93,8.83-1.32,6.58-2.73,9-8.34,13.15-3,2.2-2.76,5.46-2.52,8.57.2,2.71.4,5.31-1.53,7a10.2,10.2,0,0,1-4.3,2.19c-2.24.67-4.08,1.21-5.36,6.13a11,11,0,0,0,.65,7c.94,2.63,1.69,4.74-2.29,7.94a27.81,27.81,0,0,0-9.9,21.82c-8.24-4-6.9-9.62-6.15-12.27l.14-.49c.93-3.17,3.13-10.63-5.92-15-9.55-4.66-9.11-12.55-5-18.34s7.6-14-.46-22.67c-6.58-7.09-4.11-10.09-2-12.62a12.05,12.05,0,0,0,1.24-1.68c1.76-3.07,2.69-11.09-5.38-14.08l-.54-.2c-7.86-2.91-15-5.55-14.84-10.65a56.72,56.72,0,0,1,.8-8.5c-2.81,3-7.6,10.56-4.27,16.7a23.51,23.51,0,0,0,5.23,6.32c2.55,2.37,4.13,3.82,1.6,7.37-.75,1-1.5,2-2.22,2.93-3.25,4.15-5.77,7.38-3.76,13.2.23.69.46,1.32.67,1.9,2,5.42,2.45,6.81-2.75,15.25-5.75,9.33-2.73,14.73,0,19.16l.68,1.09c2.26,3.53,3.12,4.86,1.19,13.43-2.12,9.38.51,13.33,6.65,16.84s6.74,9.57,6.65,16.85.38,12.85,11.07,19.79,12.84,11,12.48,17.33-5.1,13.57-5.1,13.57Z"/><path class="cls-5" d="M1329.5,325c-59.5-6.5-154-8-292.5,78-52.5,31.17-196.9,100.6-350.5,69-169-34.77-169-101-270-147C315.79,279.13,246,317,153,306,78.6,297.2,20,208.33,0,165v837l1440-55.5V350C1423,343.83,1377.1,330.2,1329.5,325Z"/><path class="cls-5" d="M183.06,265.28c-21.22,20.3-61.5,31.62-79,34.74-24.66-14.29-40.14-39.35-48.29-59.27-13.43-32.82-11.89-79.62,4.56-88.29s21.77,13.36,20.08,24.73-5.46,36.6,7.9,38.59,19.32-38.07,21.82-65,24-72.76,45.63-61.95,10.58,51.12-8.08,84.74-24.12,70.21-11.28,75.66,25.55-15.4,33.18-25.89,26.93-21.26,34.38-13.58S209.59,239.92,183.06,265.28Z"/><circle class="cls-3" cx="83" cy="67" r="9"/><circle class="cls-3" cx="111" cy="32" r="5"/><circle class="cls-3" cx="663" cy="307" r="9"/><circle class="cls-3" cx="699" cy="277" r="6"/><circle class="cls-3" cx="717" cy="325" r="4"/><circle class="cls-3" cx="1343" cy="81" r="10"/><circle class="cls-3" cx="1305.5" cy="43.5" r="6.5"/><circle class="cls-3" cx="1334" cy="5" r="5"/><path class="cls-1" d="M1254.43,637.33c14.53,1.34,20,5.33,21.17,8.25s1.43,11.91,1.43,11.91l31.07-6.71c-.91-1.11-2.33-10.55-.69-15.48,2-6.17,3.74-10.67,21.92-22.53s46.76-39,58-56.42,22.09-47.24,1.65-45.74-31.82,30.92-48,56.67c-12.92,20.61-31.46,40.25-39.12,47.5a157.61,157.61,0,0,1,6.5-27.55c5.3-16.43,26.56-54.59,30.19-87s-9.58-69-26.1-61.75-9.3,30.27-7.65,52.7c1.32,18-3.46,43.88-6,54.59-.63-6.3-2.42-22-4.53-34.26-2.63-15.35-9.34-51.95-17.48-80.93s-21.79-44-31-33.31-3.57,33.35,1.72,57.52,23.79,78,32.79,104.88c7.2,21.53,8.41,50.69,8.11,62.57-1.74-1-8.08-7.72-19.47-26.14-14.22-23-19-40.21-32.8-77.8s-42.33-57.55-47.55-33.1,22.86,45,34.64,75.66c9.43,24.58,30.93,50,40.49,59.69-6.5.15-23.64-2.47-40.14-14.09-20.62-14.53-24.82-30.76-40.76-36.11s-23.63,12.77-1.38,35.7S1236.25,635.66,1254.43,637.33Z"/><g class="cls-6"><path class="cls-7" d="M1267.5,417a9.5,9.5,0,1,0-9.5-9.5A9.5,9.5,0,0,0,1267.5,417ZM1251,472a7,7,0,1,0-7-7A7,7,0,0,0,1251,472Zm-46,35.5a10.5,10.5,0,1,1-10.5-10.5A10.5,10.5,0,0,1,1205,507.5Zm45,20a10.5,10.5,0,1,1-10.5-10.5A10.5,10.5,0,0,1,1250,527.5ZM1224,571a7,7,0,1,0-7-7A7,7,0,0,0,1224,571Zm-33,36a7,7,0,1,1-7-7A7,7,0,0,1,1191,607Zm22,9a4,4,0,1,0-4-4A4,4,0,0,0,1213,616Zm31,18.5a5.5,5.5,0,1,1-5.5-5.5A5.5,5.5,0,0,1,1244,634.5Zm14.5-48.5a5.5,5.5,0,1,0-5.5-5.5A5.5,5.5,0,0,0,1258.5,586Zm55.5-71a7,7,0,1,1-7-7A7,7,0,0,1,1314,515Zm-19-27.5a9.5,9.5,0,1,1-9.5-9.5A9.5,9.5,0,0,1,1295,487.5Zm2,90a9.5,9.5,0,1,1-9.5-9.5A9.5,9.5,0,0,1,1297,577.5Zm30.5,46.5a9.5,9.5,0,1,0-9.5-9.5A9.5,9.5,0,0,0,1327.5,624Zm14.5-44a7,7,0,1,1-7-7A7,7,0,0,1,1342,580Zm24-17a5,5,0,1,0-5-5A5,5,0,0,0,1366,563Z"/></g><path class="cls-8" d="M243.17,322.63A241.85,241.85,0,0,1,262.34,429q-.48,11-1.86,22a142.77,142.77,0,0,0,30-37.84,138.18,138.18,0,0,0,7.29-15.55C282.22,384.8,282.15,365,284,356.34a7.22,7.22,0,0,1,14.11,3.06c-1.11,5.12-.94,15.09,4.89,22.9,5.18-17.43,7.32-33.5,7.71-41.63a7.22,7.22,0,0,1,14.42.71c-.7,14.23-6,49.53-22,78.7-2.26,4.1-4.62,8-7,11.6a74.58,74.58,0,0,0,27.37-11.2,93.24,93.24,0,0,0,24.49-23,7.22,7.22,0,0,1,11.85,8.24A104.77,104.77,0,0,1,337.85,428a34.53,34.53,0,0,0,11.53,5,39.71,39.71,0,0,0,14.77.86,7.22,7.22,0,0,1,2.34,14.24A54,54,0,0,1,346,447a47.71,47.71,0,0,1-20.82-10.74c-11.52,6.37-25.33,11-40.66,10.75-10.74,12.58-21.13,20.74-27.25,24.41-6.64,34.55-18.75,68.05-32.14,97.31a7.57,7.57,0,0,1-13.8-6c3.42-9.66,7.24-37-14-68.52-21.11-31.32-58.62-44-74.51-46.33a7.21,7.21,0,0,1,2.07-14.28c15.2,2.2,47,12.33,71.17,36.52a51.11,51.11,0,0,0-2.16-26.5,71,71,0,0,0-14.58-24.81,7.22,7.22,0,0,1,10.47-9.94A85.54,85.54,0,0,1,207.53,439c4.32,12.82,5.89,28.38-.4,44.11.72,1,1.42,2,2.11,3,9.81,14.55,15,28.52,17.42,40.87,11.43-31.36,19.83-65.3,21.26-98.66.07-1.66.12-3.31.16-4.94v0c-6.34-15.56-17.43-28.35-29.95-38.47-7,5.59-15.4,7.78-22.92,8.34a63.15,63.15,0,0,1-23.27-2.76,7.22,7.22,0,0,1,4.52-13.71,48.55,48.55,0,0,0,17.68,2.08,30,30,0,0,0,11.47-3c-14.3-9.16-28.49-14.85-37.45-17.31A7.21,7.21,0,0,1,172,344.67c11.37,3.12,29.09,10.42,46.21,22.28a134.65,134.65,0,0,1,28.65,26.33A224.14,224.14,0,0,0,222.6,313c-10.87,2.33-22.1,1.32-31.76-.84A104.06,104.06,0,0,1,163.66,302a7.22,7.22,0,1,1,7.11-12.56A89.62,89.62,0,0,0,194,298a65.65,65.65,0,0,0,21,1.55c-11.71-18.93-24.16-32.35-33.07-39.51A7.22,7.22,0,1,1,191,248.82c12.32,9.91,29.86,29.58,44.51,57.59a95.76,95.76,0,0,0,5.21-14.59c2.62-9.89,3.55-20.44.88-29.65a7.22,7.22,0,1,1,13.86-4c3.68,12.7,2.19,26.15-.79,37.37a104.15,104.15,0,0,1-11.22,26.75C243.33,322.39,243.26,322.51,243.17,322.63Zm42,159.37a7.21,7.21,0,1,0-13.59-4.84,104.2,104.2,0,0,0-5.32,28.52c-.49,10.36.56,22.21,5.27,32.92a204.3,204.3,0,0,1-36.38,30.83A7.21,7.21,0,0,0,243,581.52c21.39-13.92,39.4-32.13,53.43-49.59,11.29,1.16,22.56-1.23,32.06-4.6A104.89,104.89,0,0,0,354.23,514a7.22,7.22,0,0,0-8.57-11.62,90,90,0,0,1-22,11.37,69.76,69.76,0,0,1-16.39,3.81,231.69,231.69,0,0,0,20.07-33.6,7.22,7.22,0,0,0-13.09-6.1c-4.19,9-12.78,23.91-25.09,40a7.15,7.15,0,0,0-3.35,4.3c-1.1,1.36-2.21,2.74-3.35,4.11a66.72,66.72,0,0,1-1.81-19.87A90.63,90.63,0,0,1,285.14,482Z"/><path class="cls-9" d="M918.6,692.93c105-12.5,192.68,14.93,223.4,30.22V956H0V528.32c17.88-1,71.86-.11,144.77,12,91.13,15.11,173,43.65,324.53,123.36S787.37,708.56,918.6,692.93Z"/><path class="cls-10" d="M1000.54,690.21A21,21,0,0,1,1013.29,717c-4.83,13.59-13.38,48.24-9.94,76.43a21,21,0,1,1-41.69,5.08c-4.57-37.41,6.22-79.16,12.05-95.57A21,21,0,0,1,1000.54,690.21Z"/><path class="cls-11" d="M1105.76,614.45a21,21,0,0,1,4.79,29.31c-6.54,9.1-22.15,35.86-28.56,64.35-6.87,30.51-9.2,59.82-9.5,70a21,21,0,1,1-42-1.24c.37-12.48,3-44.5,10.5-78,8-35.51,26.65-67.41,35.44-79.65A21,21,0,0,1,1105.76,614.45Z"/><path class="cls-12" d="M814.25,606.13a21,21,0,0,1,29.62,2.12c3.94,4.54,9.35,13.3,15.73,25.73,6.69,13,15.14,31.41,24.94,56.33C905.26,743,909,815.13,908.5,844.37a21,21,0,1,1-42-.74c.49-27.43-3.36-93-21-137.94-9.4-23.88-17.28-41-23.21-52.52-3-5.77-5.41-10.07-7.25-13.08s-2.72-4.13-2.85-4.31c0,0,0,0,0,0A21,21,0,0,1,814.25,606.13Z"/><path class="cls-13" d="M973.06,565.89a21,21,0,0,1,29.05,6.17C1012.46,588,1031,630,1034,684.85c2.9,53.07-2.89,102.2-6.31,120.92a21,21,0,0,1-41.32-7.54c2.92-16,8.39-61.75,5.69-111.08-2.6-47.56-18.82-82.48-25.14-92.21A21,21,0,0,1,973.06,565.89Z"/><path class="cls-14" d="M941.18,564.72a21,21,0,0,1,6.6,29c-10.73,17.05-31.52,70.34-36.84,142.37-4.32,58.52-1.67,92-.45,107.46.24,3.11.43,5.49.5,7.21a21,21,0,1,1-42,1.56c0-1.14-.19-2.94-.4-5.43-1.16-14.34-4.18-51.38.44-113.9,5.68-77,27.89-137.35,43.16-161.63A21,21,0,0,1,941.18,564.72Z"/><path class="cls-15" d="M959.85,634A21,21,0,0,1,980,655.85l-7.5,185.5a21,21,0,0,1-42-1.7l7.5-185.5A21,21,0,0,1,959.85,634Z"/><path class="cls-16" d="M894.89,652.34a21,21,0,0,1,29.27,5c8.32,11.78,22.15,41.52,24.79,81.21,2.48,37.17,1,71.88,0,85.1a21,21,0,1,1-41.86-3.4,608.7,608.7,0,0,0,0-78.9c-2.16-32.31-13.52-54.57-17.21-59.79A21,21,0,0,1,894.89,652.34Z"/><ellipse class="cls-17" cx="1096.5" cy="627" rx="8" ry="10.5" transform="translate(50.22 1334.63) rotate(-63.83)"/><ellipse class="cls-17" cx="825.5" cy="618" rx="10.5" ry="8" transform="translate(-193.03 456.86) rotate(-27.83)"/><ellipse class="cls-17" cx="904.5" cy="665" rx="10.5" ry="8" transform="translate(-193.09 429.13) rotate(-24.2)"/><path class="cls-18" d="M167.5,870.5C94.46,879.59,25.17,853,0,842V2404H1440V653.5c-71-7.5-154-20-257.5,29C1090,726.28,921,859,756.5,830c-138.4-24.4-157.56-47.61-261-45.5C362.65,787.21,272,857.5,167.5,870.5Z"/><path class="cls-19" d="M69,595.82C59.55,628.6,34.61,706.15,10.67,754s-37.51,79.63-41.31,89.52"/><path class="cls-20" d="M67.76,685.51a112.86,112.86,0,0,0-33.67,19.14.93.93,0,0,0,.3,1.6c9.22,3.3,29.3,7.42,46.74,1,17.1-6.35,29.2-17.67,34.06-23.63a.94.94,0,0,0-.62-1.53C104.68,680.71,83.82,679.81,67.76,685.51Z"/><path class="cls-20" d="M33.29,764.28c-19.18,5.39-32.69,16.5-37.67,22a.93.93,0,0,0,.07,1.32c6.33,5.65,23.18,13.64,45.45,4.58,21.72-8.85,34.69-21.86,39.25-28.29a.92.92,0,0,0-.57-1.45A106.36,106.36,0,0,0,33.29,764.28Z"/><path class="cls-20" d="M59.64,540.28c-2.26,19.14,4.59,44,8.65,55.1a.89.89,0,0,0,1.34.47c4.68-3.24,13.07-14.39,15.63-38.36,2.6-24.36-7.4-48.6-13.54-59.22a.94.94,0,0,0-1.7.13A179,179,0,0,0,59.64,540.28Z"/><path class="cls-20" d="M27.22,606c7.47,18.32,19.27,31.34,25.37,36.59a.93.93,0,0,0,1.54-.62c.93-8.73.91-27.51-5.58-45.08s-19.17-31.94-25.8-38a.94.94,0,0,0-1.57.57A97.26,97.26,0,0,0,27.22,606Z"/><path class="cls-20" d="M95.09,620.17c-14.93,4.2-31.81,17-39.53,23.85a.94.94,0,0,0,.36,1.62c8.41,2.44,26.68,4.78,44.09-2.44a107,107,0,0,0,36-25.14.94.94,0,0,0-.65-1.57C126.91,616,109.68,616.07,95.09,620.17Z"/><path class="cls-20" d="M-.09,667.71c8.77,20.12,23.3,32.79,30.67,37.43a.93.93,0,0,0,1.43-.78c.15-8.09-1.39-25.25-8.81-40.6-7.53-15.61-23.7-28.94-32-34.47a.89.89,0,0,0-1.41.7C-10.34,635.43-8.51,648.41-.09,667.71Z"/><path class="cls-19" d="M167.8,712.62C148.25,740.6,99.63,806,61.54,843.54S.35,906.82-6.44,915"/><path class="cls-21" d="M137.67,797.11c-18,.22-33.84,5.34-39.49,7.86,6.86,5.89,25.49,17.51,45.15,17s35.68-8.41,41.23-12.28C176.44,805.39,155.71,796.89,137.67,797.11Z"/><path class="cls-22" d="M26.58,814.1c-3.4,25.86,4.23,48.14,8.48,56,4-2.63,12.91-14.62,16.78-41.66S48,782.22,43.68,776C39.4,777.91,30,788.25,26.58,814.1Z"/><path class="cls-23" d="M79.64,860.55c-20.77-1.13-37.69,5.63-43.56,9.15,3.62,7.21,17.07,21.26,42,19.81s52-10,57.36-14.41C128.82,870.9,100.41,861.68,79.64,860.55Z"/><path class="cls-24" d="M176.83,657c-8.59,18-10,44.86-9.56,56.06,4.88-.74,17.37-8.07,28.25-31.51s8.47-51.29,5.89-62.28C196.8,624.39,185.42,639.07,176.83,657Z"/><path class="cls-25" d="M124.94,708.79c1.25,21.3,9.27,38.39,13.12,44.27,3.55-7,10.53-26,10-46s-8.9-38.88-13-45.78C131.15,668.23,123.7,687.49,124.94,708.79Z"/><path class="cls-26" d="M184.62,744.08c-16.38-.89-37.92,6.62-46.64,10.48,6.25,4.85,23.76,14.21,43.86,12.9s37.56-9.31,43.78-13.14C218.78,751.27,201,745,184.62,744.08Z"/><path class="cls-27" d="M79.19,758.38c1.93,23.34,12.8,40.75,18,46.54,2.7-6.7,7.54-24.63,5.32-42.77s-14.34-37-20.13-44.16C80.51,721.73,77.25,735,79.19,758.38Z"/><path class="cls-28" d="M489.7,598.11l244.21,184a21,21,0,0,1,2.35,31.48L625.79,926.17a25,25,0,0,1-34.3,1.31L330,698.86a20,20,0,0,1,3.26-32.43L456.8,596A30,30,0,0,1,489.7,598.11Z"/><path class="cls-29" d="M490.7,586.11l244.21,184a21,21,0,0,1,2.35,31.48l-115.1,117.3a18,18,0,0,1-24.69,1L331,686.86a20,20,0,0,1,3.26-32.43L457.8,584A30,30,0,0,1,490.7,586.11Z"/><path class="cls-30" d="M423,616.5l-2,1.17M391.5,635l23-13.5"/><path class="cls-2" d="M487.7,590l244,184.73a15,15,0,0,1,1.65,22.47L619.85,912.85a14,14,0,0,1-19.2.73L337,683.05a15,15,0,0,1,2.48-24.35L356.61,649a9,9,0,0,1,9.83.62l4.21,3.15a12,12,0,0,0,13.21.78l69.69-40.37a4,4,0,0,0,.27-6.75l-5.43-3.76a4,4,0,0,1,.35-6.79l14-7.71A23,23,0,0,1,487.7,590Z"/><g class="cls-31"><path class="cls-32" d="M506.5,875.5,494,573l48.5,11L768,775.5l-150,182Z"/></g><path class="cls-30" d="M694,823l-47.5,48"/><path class="cls-33" d="M899.09,430.93,765.26,473.26a5,5,0,0,0-1.66,8.64L810,519.78a22,22,0,0,0,21,3.78l155.58-53.2a5,5,0,0,0,.26-9.37L914,431.52A22,22,0,0,0,899.09,430.93Z"/><path class="cls-34" d="M899.56,422.89,765.73,465.21a5,5,0,0,0-1.66,8.64l46.4,37.88a22,22,0,0,0,21,3.78l155.58-53.2a5,5,0,0,0,.26-9.36l-72.9-29.48A21.94,21.94,0,0,0,899.56,422.89Z"/><path class="cls-35" d="M899.46,425.34,768.78,466.28a4,4,0,0,0-1.25,7l47.17,36.38a16,16,0,0,0,14.82,2.51l156-51.88a3,3,0,0,0,.18-5.63l-14-5.62-10.78-4.09a6,6,0,0,0-4.19,0l-5.42,2a11,11,0,0,1-8.32-.32l-29.11-13.22a1,1,0,0,1,.13-1.87l5.46-1.62a1,1,0,0,0,.07-1.9L914,425.84A22,22,0,0,0,899.46,425.34Z"/><path class="cls-36" d="M808.5,497l-20-15"/><path class="cls-36" d="M942.5,440.5l-.54-.25M928.5,434l10.5,4.88"/><path class="cls-37" d="M749,593.5l11-1.5"/><path class="cls-37" d="M750,597.5l13-.5"/><path class="cls-37" d="M437,472.86l-10.71,2.93"/><path class="cls-37" d="M437.6,476.93l-12.16,4.63"/><path class="cls-38" d="M524.19,478.43c-36.28-6-71-1.41-85.52,1.95a2,2,0,0,1-2.43-1.47l-1.48-5.82a1.94,1.94,0,0,1,1.43-2.4c15.48-3.61,51.7-8.38,89.62-2.12,24.47,4,47.31,10,63.92,17.43,8.28,3.7,15.32,7.91,20.24,12.66s8.23,10.64,7.5,17.38a23.85,23.85,0,0,1-6.59,14.56c-3.27,3.37-7.28,5.6-10.55,7.4l-.18.1c-3.43,1.88-6,3.3-7.95,5.18a10.14,10.14,0,0,0-3.21,7.09c-.23,3.09,1.19,7,5.26,11.37s10.24,8.84,18.32,12.92c16.12,8.15,38.81,14.38,63.72,15.85,37.59,2.21,62.25,1.17,71.6.25a2,2,0,0,1,2.23,1.76l.76,6a2,2,0,0,1-1.72,2.2c-10,1-35.34,2.05-73.45-.19-26.09-1.53-50.15-8-67.65-16.9-8.74-4.42-16.06-9.53-21.17-15.08s-8.39-12-7.88-18.88a20.17,20.17,0,0,1,6.24-13.55,44.29,44.29,0,0,1,9.64-6.5l.63-.35c3.39-1.86,6.1-3.44,8.17-5.58a13.91,13.91,0,0,0,3.84-8.69c.27-2.5-.8-5.51-4.51-9.11s-9.59-7.24-17.37-10.72C570.13,488.18,548.22,482.4,524.19,478.43Z"/><path class="cls-37" d="M1121.52,870.1l-6.93,8.67"/><path class="cls-37" d="M1124.44,873l-7.1,10.9"/><path class="cls-39" d="M1334,793.71c-19,.94-39.82,2-63.14,3.77-73.66,5.73-125.74,52.46-143.66,76.34a2,2,0,0,1-2.79.43l-4.88-3.5a2,2,0,0,1-.46-2.76c19.07-25.5,73.59-74.46,151-80.47,23.47-1.83,44.36-2.86,63.39-3.79l1.81-.09c19.54-1,37.07-1.85,53.52-3.43,32.18-3.09,60.09-8.82,90.21-22.87a2,2,0,0,1,2.67.95l2.58,5.42a2,2,0,0,1-1,2.66c-31.49,14.7-60.62,20.63-93.55,23.79-16.73,1.61-34.49,2.51-54,3.47Z"/></svg>