<svg id="Layer_1" data-name="Layer 1" xmlns="http://www.w3.org/2000/svg" xmlns:xlink="http://www.w3.org/1999/xlink" viewBox="0 0 1440 824"><defs><style>.cls-1{fill:url(#linear-gradient);}.cls-2{fill:#001439;}.cls-3{fill:#142d75;}.cls-18,.cls-20,.cls-4,.cls-5,.cls-6{fill:none;stroke-linecap:round;}.cls-4{stroke:#4567cd;stroke-width:2px;}.cls-5,.cls-6{stroke-width:12px;}.cls-5{stroke:url(#linear-gradient-2);}.cls-6{stroke:url(#linear-gradient-3);}.cls-21,.cls-7{fill:#021e50;}.cls-8{fill:url(#linear-gradient-4);}.cls-9{fill:url(#linear-gradient-5);}.cls-10{fill:url(#linear-gradient-6);}.cls-11{fill:#132b72;}.cls-12{fill:url(#linear-gradient-7);}.cls-13{fill:url(#linear-gradient-8);}.cls-14{mask:url(#mask);}.cls-15{fill:url(#linear-gradient-9);}.cls-16,.cls-21{fill-rule:evenodd;}.cls-16{fill:url(#linear-gradient-10);}.cls-17{fill:#143080;}.cls-18{stroke:#1d3b8f;}.cls-18,.cls-20{stroke-width:3px;}.cls-19{fill:#122b72;}.cls-20{stroke:#143080;}.cls-22{fill:url(#linear-gradient-11);}.cls-23{fill:url(#linear-gradient-12);}.cls-24{fill:url(#linear-gradient-13);}.cls-25{fill:#e9eaf8;opacity:0.2;isolation:isolate;}</style><linearGradient id="linear-gradient" x1="769.42" y1="706.14" x2="1128.67" y2="222.7" gradientTransform="matrix(1, 0, 0, -1, 0, 858)" gradientUnits="userSpaceOnUse"><stop offset="0" stop-color="#4d70d9"/><stop offset="1" stop-color="#143080"/></linearGradient><linearGradient id="linear-gradient-2" x1="1127.3" y1="210.14" x2="1078.31" y2="531.19" gradientTransform="matrix(1, 0, 0, -1, 0, 858)" gradientUnits="userSpaceOnUse"><stop offset="0" stop-color="#021e50"/><stop offset="1" stop-color="#203e93"/></linearGradient><linearGradient id="linear-gradient-3" x1="717.28" y1="291.46" x2="587.78" y2="96.96" gradientTransform="matrix(1, 0, 0, -1, 0, 858)" gradientUnits="userSpaceOnUse"><stop offset="0" stop-color="#021e50"/><stop offset="1" stop-color="#1d3b8d"/></linearGradient><linearGradient id="linear-gradient-4" x1="819.7" y1="675.79" x2="1046.61" y2="110.36" xlink:href="#linear-gradient"/><linearGradient id="linear-gradient-5" x1="985.93" y1="814.41" x2="1020.72" y2="38.76" gradientTransform="matrix(1, 0, 0, -1, 0, 858)" gradientUnits="userSpaceOnUse"><stop offset="0" stop-color="#2f50b4"/><stop offset="1" stop-color="#0b2160"/></linearGradient><linearGradient id="linear-gradient-6" x1="1008.07" y1="165.01" x2="1052.57" y2="-7.99" gradientTransform="matrix(1, 0, 0, -1, 0, 858)" gradientUnits="userSpaceOnUse"><stop offset="0" stop-color="#021e50"/><stop offset="1" stop-color="#001439"/></linearGradient><linearGradient id="linear-gradient-7" x1="1107.28" y1="439.78" x2="1008.92" y2="36.3" xlink:href="#linear-gradient"/><linearGradient id="linear-gradient-8" x1="704.05" y1="641.4" x2="1161.97" y2="213.44" gradientTransform="matrix(1, 0, 0, -1, 0, 858)" gradientUnits="userSpaceOnUse"><stop offset="0" stop-color="#4d70d9"/><stop offset="1" stop-color="#021e50"/></linearGradient><mask id="mask" x="876.5" y="427.5" width="381.5" height="285" maskUnits="userSpaceOnUse"><g id="mask0_1_142" data-name="mask0 1 142"><path class="cls-1" d="M921.5,587.5l-35-160,343,112.5L1258,702.5Z"/></g></mask><linearGradient id="linear-gradient-9" x1="759.42" y1="696.14" x2="1118.67" y2="212.7" xlink:href="#linear-gradient"/><linearGradient id="linear-gradient-10" x1="948.02" y1="505.31" x2="1162.81" y2="145.75" xlink:href="#linear-gradient"/><linearGradient id="linear-gradient-11" x1="137.75" y1="332.19" x2="169.93" y2="91.54" xlink:href="#linear-gradient-5"/><linearGradient id="linear-gradient-12" x1="1342.72" y1="219.72" x2="1316.76" y2="25.61" xlink:href="#linear-gradient-5"/><linearGradient id="linear-gradient-13" x1="382.2" y1="145.24" x2="372.88" y2="56.28" xlink:href="#linear-gradient-5"/></defs><path class="cls-2" d="M58.5,353,0,288V835.5H1440V287l-25-120-24.5-26.5L1368,0l-18.5,288L1325,167l-11,73-8,129.5-38,12-25,42-103,39-28,32L786,563c-12.17,29-51,87.3-109,88.5S546.17,631,517,620l-30.5-37.5-14-148L454,368l-9,125-17.5-60.5V328l-14-13.5-7-40-11-42L386,344l-17,11.5-10,95L341.5,445,338,356l-18-32L305,156l-11,45.5L289.5,302,278,305.5l-13-64L254.5,275V388.5l-27.5,9-14,53-20.5-65-39-29.5Z"/><path class="cls-3" d="M0,288l58.5,65L0,317Z"/><path class="cls-3" d="M1346,344.5,1368,0l7.5,218.5,11-40.5,7.5,83.5-15.5,16v92l-57.5,19,22,10-58.5,9.5L1265,446.5l-125,16,103-39,25-42,38-12,8-131.5,11-70,5,118.5-9.5-22,5,63Z"/><path class="cls-3" d="M408.5,285l-13-52.5,13,124.5-11-20.5-2,79,13-23.5V617.5l25-90,24,7.5-30-102.5L428,328l-14-13Z"/><path class="cls-3" d="M320,324,305,156l-5.5,154.5,8-16.5L306,356l-6.5,108.5,23-53.5,5,140.5,15-79L338,356Z"/><path class="cls-4" d="M1033.25,358.16l2.26-10.87"/><path class="cls-4" d="M1037.35,358.55l3.87-12.42"/><path class="cls-5" d="M1034.85,361.51c-3,15.62-.5,50.19,34.07,63.49,43.21,16.61,85.53,21.25,91.65,104.1"/><path class="cls-6" d="M744.28,582.78c-7.46,7.12-31,22.54-65.53,27.3-43.17,5.95-59,39.82-70.57,89.9s-28.65,81-62,97.24"/><path class="cls-7" d="M1292,633.5c7.2,53.2-22.67,76.5-38.5,81.5l-46,28.5c-1.5,13.33,5.6,38.2,46,31,50.5-9,98.67-71.17,72.5-130.5-22.5-51-7-101,10.5-122C1297.5,535.5,1284.8,580.3,1292,633.5Z"/><path class="cls-7" d="M1358.5,696c-13.6,38-63,56.5-86,61l-12,11.5c7.33,10.67,31.1,29.4,53.5,17,28-15.5,64-36,68.5-93.5,3.6-46-15.83-76.17-24-87.5C1364.17,619.17,1372.1,658,1358.5,696Z"/><path class="cls-8" d="M759.5,730l196,67.5,267-32.5,50.5-44.5-33.5-190L870,409.5,718.77,544.42a4,4,0,0,0-1.24,3.89Z"/><path class="cls-9" d="M910,597,760,730l191,66,12.5,7.5,257.5-37,52-46Z"/><path class="cls-10" d="M914,613,786.5,725.5l225,78L1022,823l171.5-50,53.5-45Z"/><path class="cls-11" d="M943.22,743.17l-34.31-10.62a2,2,0,0,1-.73-3.41L965.08,679a8,8,0,0,1,7.76-1.61l33.82,11a2,2,0,0,1,.71,3.41l-56.5,49.72A8,8,0,0,1,943.22,743.17Z"/><path class="cls-12" d="M910,597,870,409.5l367.22,120.25a4,4,0,0,1,2.7,3.11L1273,720.5Z"/><path class="cls-13" d="M921.5,587.5l-35-160,343,112.5L1258,702.5Z"/><g class="cls-14"><path class="cls-15" d="M911.5,597.5l-35-160,343,112.5L1248,712.5Z"/><path class="cls-16" d="M938,593,906.5,447.5l45,14.5,32,147Zm63,21.5-27.5-145,45,14.59,28,145.91Zm39.5-123L1066,636.9l45.5,16.1-26-146.91ZM1134,659.9l-26.5-147.4,45,14.59,27,148.91Zm40.5-124.4L1199,680.9l45.5,16.1-25-146.91Z"/></g><ellipse class="cls-17" cx="951" cy="555.5" rx="4.5" ry="5" transform="translate(-101.74 879.09) rotate(-47.38)"/><ellipse class="cls-17" cx="955" cy="574.5" rx="4.5" ry="5" transform="translate(-114.43 888.17) rotate(-47.38)"/><path class="cls-18" d="M946,535.5,934.5,479"/><ellipse class="cls-17" cx="1081" cy="600.5" rx="4.5" ry="5" transform="translate(-92.89 989.27) rotate(-47.38)"/><ellipse class="cls-17" cx="1085" cy="619.5" rx="4.5" ry="5" transform="translate(-105.58 998.35) rotate(-47.38)"/><path class="cls-18" d="M1078,580.5,1067.5,524"/><ellipse class="cls-19" cx="1215" cy="643.5" rx="4.5" ry="5" transform="translate(-81.27 1101.75) rotate(-47.38)"/><ellipse class="cls-19" cx="1219" cy="662.5" rx="4.5" ry="5" transform="translate(-93.96 1110.83) rotate(-47.38)"/><path class="cls-20" d="M1212,623.5,1201.5,567"/><ellipse class="cls-17" cx="1001" cy="500.5" rx="4.5" ry="5" transform="translate(-45.13 898.12) rotate(-47.38)"/><ellipse class="cls-17" cx="1005" cy="519.5" rx="4.5" ry="5" transform="translate(-57.82 907.2) rotate(-47.38)"/><path class="cls-18" d="M1020,600.5,1008.5,544"/><ellipse class="cls-17" cx="1135" cy="544.5" rx="4.5" ry="5" transform="translate(-34.25 1010.93) rotate(-47.38)"/><ellipse class="cls-17" cx="1139" cy="563.5" rx="4.5" ry="5" transform="translate(-46.94 1020) rotate(-47.38)"/><path class="cls-20" d="M1153,645.5,1142.5,587"/><path class="cls-7" d="M202.5,639.5C112.5,629.9,30,575.17,0,549v720H1440V807c-46.67-15.33-164.5-46.2-262.5-47-122.5-1-200,41.5-322.5,48.5s-217.5-17.5-337-90S315,651.5,202.5,639.5Z"/><path class="cls-21" d="M184,498.5c-4.8-10.8-.67-26.83,2-33.5a75.86,75.86,0,0,0,1.5,14c1.5,7,5,14,12,22.5s11,18.5,6.5,28.5c-.34.76-.67,1.48-1,2.17h0c-3.91,8.52-6.1,13.26-1,30.83,4.17,14.41.87,22.2-2.5,30.15a79.91,79.91,0,0,0-3,7.85c-1.58,5.19-.11,10.68,1.44,16.43,1.87,7,3.85,14.38.56,22.07-.19.45-.4.89-.61,1.32,6.33-7.19,12.46-16.64,12.46-25.43a60.75,60.75,0,0,0-1.95-15.5c-1.21-5.15-2.12-9,.35-16.65a41.9,41.9,0,0,1,6-11.49c3.25-4.75,5.85-8.56,4.2-17-2.7-13.69-3.69-22.26-.78-29.1a39.22,39.22,0,0,1,3.29-5.91c2.24-3.48,4.3-6.69,4.32-12.67a92.63,92.63,0,0,0-1.51-16.62c3.64,6.06,10.69,20.67,9.7,30.63a47.17,47.17,0,0,1-1.87,9.36c-1.21,4.2-2,7,.33,16.59,3.63,14.74,2.63,23.2-4,34.32-5.33,8.89-3.15,15-1,21,.53,1.51,1.07,3,1.48,4.55,2.05,7.63,2.1,23.66-11.06,34.4-9.77,8-22.16,9.26-28.26,8.88A25.38,25.38,0,0,1,180,654.5c3.5-6.83,8.9-23.6,2.5-36-8-15.5-6.5-27,0-38s3-18.5,0-24.5-4-16,0-24.5S190,512,184,498.5ZM153.49,633.65c.71,16,16,20.55,23.51,20.85-3.1-4.44-8.78-17.47-6.65-34.15,2.48-19.43,0-24.6-5.79-36.35h0l-1.31-2.68c-3.15-6.52-.83-15.12,1.64-24.27,2.75-10.15,5.67-20.95,1.47-30.29-6.39-14.19-4.74-28.09-3.11-33.26-1.63,1-5.59,5.23-8.43,13.75-1.91,5.76-2.15,12.55-2.38,19.26-.19,5.7-.38,11.33-1.61,16.22-.46,1.87-1.17,4.06-1.94,6.49-3.65,11.37-9,28,.17,41.86,7.33,11.14,6.52,17.44,5.38,26.2A88.08,88.08,0,0,0,153.49,633.65Z"/><path class="cls-2" d="M142.51,338.89c-12.85,5-16.59,15-17,21a2.25,2.25,0,0,1-2.16,2.15H111.6a2.34,2.34,0,0,1-2.21-2.53,11.29,11.29,0,0,0-.36-3.9c-.88-2.93-2.94-5.27-15.86-9.66s-23.79-10.82-25.85-18.13,4.41-7.32,8.81-1.47,21.74,14.92,25.26,12.58,0-4.68-12.63-12.58-12.92-13.45-17-17.55-19.68-5-31.72-21.65-11.46-28.95-7.35-28.37,5.58,1.46,11.46,17S62,298.82,67.32,298.82s-1.17-11.12-3.82-19-3.81-19.6-4.11-25.74-.29-18.43-3.52-29S50,193.8,57.63,192.63s8.22,24.28,8.52,40.66,4.11,14.92,7.93,7,0-23.4,4.4-23.4,7,8.48,5,19.6-15,21.65-11.75,43.29,15,36.86,20.56,40.66,13.8,1.76,5.58-7.6-10.87-18.14-5.58-19,10,5,13.8,14.92,10.58,18.43,15.57,15.21,1.47-13.45-2.35-20.18-4.11-14.63-12.34-24-7.93-13.45-4.69-15.21,7.63,7.9,10.57,7.61,3.52-4.68,3.82-12,3.82-24,2.64-39.19S114.9,201.7,109,192.63s-6.75-19.6-.88-18.14,8.52,16.39,12.34,15.22,4.11-5.86,1.17-13.17S111.09,154,114.9,151.39s10.58,8.48,14.1,25.15-.88,39.49-2,50.9,1.76,15.8,7.63,3.22,5-16.09,7.93-29,7.35-12.58,8.82-4.39-7.05,33.35-16.75,45.93-12,26.32-11.45,40.07,10.28,23.7,16.45,15.51,2.93-15.51,0-24-2.06-16.67,2.93-14.63,2.94,23.11,7.35,19.6,1.47-5,5-13.45,5.88-8.19,12-15.51,2.65-12.58,0-20.18,0-18.14,4.41-16.09,1.47,22.23,5.87,23.69,3.53-1.46,5.29-15.79,1.76-26.33,0-33.35,1.76-16.38,7-7.31c3.67,6.28,2.3,23,.73,33.6a1.77,1.77,0,0,0,2.87,1.75,39.49,39.49,0,0,0,7-7.56c4.4-6.44,6.46-23.7,10-16.09s-3.52,20.47-12,26.33-8.52,7.89-10.57,18.42-7.64,16.39-14.69,19.9-10.58,10.23-13.51,25.15-12.93,23.4-17.63,33.35,6.17,13.75,9.7,8.77,7.93-9.65,15.56-12.57,20-12.29,25.56-29.55,17.33-21.06,14.1-6.14-15.86,31-33.78,38.61S160.73,331.87,142.51,338.89Z"/><path class="cls-2" d="M148.67,752.05l6.24-55.55H113.17L89.5,722.14a51.69,51.69,0,0,1,18.08,9.2c6.84,5.52,16.87,18.3,21,24l13.14.33Z"/><path class="cls-22" d="M145.38,719.51l9.53-23,13.81,24L185.48,731,196,761.58l-54.24-5.91Z"/><path class="cls-2" d="M1336.28,821.08l-5-44.8h33.67L1384,797l-26.55,26.77-15.6.27Z"/><path class="cls-23" d="M1338.93,794.84l-7.69-18.56h-24.66l-10,27.84,6.4,12.75,38.87,7.13Z"/><path class="cls-2" d="M385.18,796.67l-2.92-20.39h11.85l9.8,10.36L409,798H388.42Z"/><path class="cls-24" d="M386.73,784.73l-4.47-8.45H367.93l-9.47,18.47,14.1,1.29,15.86,2Z"/><circle class="cls-25" cx="673" cy="479" r="5"/><circle class="cls-25" cx="523" cy="359" r="5"/><circle class="cls-25" cx="63" cy="129" r="5"/><circle class="cls-25" cx="482" cy="308" r="4"/><circle class="cls-25" cx="361" cy="207" r="3"/><circle class="cls-25" cx="621" cy="307" r="3"/><circle class="cls-25" cx="781" cy="257" r="3"/><circle class="cls-25" cx="571" cy="477" r="3"/><circle class="cls-25" cx="911" cy="297" r="3"/><circle class="cls-25" cx="1241" cy="207" r="3"/><circle class="cls-25" cx="251" cy="107" r="3"/><circle class="cls-25" cx="181" cy="127" r="3"/><circle class="cls-25" cx="231" cy="227" r="3"/><circle class="cls-25" cx="381" cy="117" r="3"/><circle class="cls-25" cx="154" cy="70" r="6"/><circle class="cls-25" cx="732" cy="428" r="4"/><circle class="cls-25" cx="972" cy="358" r="4"/><circle class="cls-25" cx="1185" cy="371" r="7"/><circle class="cls-25" cx="1123" cy="309" r="5"/></svg>